<svg xmlns="http://www.w3.org/2000/svg" width="209.495" height="30"><path fill="#fff" d="M16.213 22.895h-3.262v-7.896h-1.63v-2.721h1.63v-1.633c0-2.22.92-3.54 3.535-3.54h2.177v2.721h-1.36c-1.018 0-1.085.38-1.085 1.09l-.004 1.362h2.465l-.288 2.721h-2.177v7.896z"/><path fill="#fff" d="M83.508 9.724c-.626.277-1.299.465-2.005.55.721-.432 1.274-1.116 1.535-1.931-.674.4-1.421.69-2.216.847-.637-.678-1.543-1.102-2.547-1.102-1.928 0-3.49 1.562-3.49 3.49 0 .273.031.54.09.795-2.9-.146-5.472-1.535-7.194-3.646-.3.515-.472 1.115-.472 1.754 0 1.211.616 2.279 1.553 2.905-.572-.018-1.11-.175-1.581-.437v.044c0 1.691 1.203 3.102 2.8 3.422-.293.08-.601.123-.919.123-.225 0-.443-.022-.657-.062.444 1.386 1.733 2.396 3.26 2.423-1.194.936-2.699 1.494-4.334 1.494-.282 0-.56-.016-.833-.049 1.544.99 3.379 1.568 5.35 1.568 6.419 0 9.93-5.318 9.93-9.93l-.01-.452c.681-.491 1.273-1.106 1.74-1.806z"/><path d="M38.789 14.462h-2.021v-2.488h2.079v-.632c0-3.061 1.392-4.127 4.137-4.127.744 0 1.315.119 1.754.198l-.209 2.449c-.286-.099-.572-.158-1.087-.158-.877 0-1.22.632-1.22 1.639v.632h2.44v2.489h-2.44v7.8h-3.432v-7.802zm14.275.356c-.38-.118-.762-.118-1.162-.118-1.602 0-2.498 1.204-2.498 3.219v4.344h-3.432v-10.289h3.126v1.896h.039c.591-1.304 1.449-2.133 2.936-2.133.4 0 .82.059 1.163.118l-.172 2.963z" fill="#fff"/><polygon fill="#fff" points="114.907,9.542 111.907,9.542 111.907,6.542 110.907,6.542 110.907,9.542 107.907,9.542 107.907,10.542 110.907,10.542 110.907,13.542 111.907,13.542 111.907,10.542 114.907,10.542"/><path fill="#fff" d="M103.728 16.367c-.468-.331-1.362-1.136-1.362-1.609 0-.555.158-.828.993-1.48.856-.669 1.462-1.63 1.462-2.724 0-1.302-.58-2.011-1.668-3.011h1.641l1.158-1h-5.175c-2.321 0-4.504 1.861-4.504 3.897 0 2.081 1.582 3.812 3.942 3.812l.48.012c-.153.293-.263.636-.263.979 0 .578.311 1.053.705 1.436l-.897.012c-2.874 0-5.086 1.832-5.086 3.73 0 1.869 2.425 3.04 5.299 3.04 3.276 0 5.086-1.859 5.086-3.729-.002-1.501-.444-2.398-1.811-3.365zm-2.766-2.593c-1.333-.04-2.6-1.491-2.831-3.243-.23-1.751.664-3.091 1.998-3.051 1.333.04 2.601 1.445 2.831 3.196s-.664 3.138-1.998 3.098zm-.522 8.859c-1.986 0-3.421-1.257-3.421-2.768 0-1.48 1.779-2.713 3.766-2.691.463.005.896.08 1.288.207 1.079.75 1.852 1.174 2.07 2.028.041.173.063.352.063.533.001 1.51-.973 2.691-3.766 2.691z"/><g fill="#fff"><circle cx="129.059" cy="20.887" r="2.225"/><path d="M137.588 23.113h-3.152c0-4.199-3.404-7.603-7.603-7.603v-3.152c5.94-.001 10.755 4.815 10.755 10.755zm2.226 0c0-7.169-5.812-12.98-12.98-12.98v-3.246c8.961 0 16.226 7.265 16.226 16.226h-3.246z"/></g><path d="M158.367 3.427h1.343l.865 3.45h.084l.825-3.45h1.354l-1.552 5.049v3.581h-1.333v-3.42l-1.586-5.21zm4.41 3.719c0-.493.159-.885.478-1.178.318-.292.747-.438 1.285-.438.49 0 .891.154 1.204.462.312.308.469.705.469 1.19v3.288c0 .545-.154.972-.46 1.283-.307.31-.729.465-1.267.465-.518 0-.933-.16-1.243-.48s-.466-.75-.466-1.292v-3.3zm1.218 3.42c0 .175.042.31.127.406.084.096.204.143.361.143.161 0 .288-.049.382-.146.094-.098.141-.232.141-.403v-3.467c0-.139-.048-.251-.145-.337-.096-.085-.222-.128-.379-.128-.145 0-.262.043-.352.128-.091.085-.136.198-.136.337v3.467zm6.601-4.875v6.366h-1.184v-.703c-.218.259-.445.457-.681.592s-.465.203-.687.203c-.274 0-.48-.095-.619-.284-.139-.189-.208-.474-.208-.853v-5.321h1.184v4.88c0 .151.024.26.074.328.049.068.129.102.241.102.087 0 .197-.045.33-.134s.255-.204.366-.343v-4.833h1.184zm-4.261 17.426c.09.045.186.068.286.068.145 0 .251-.045.319-.134s.103-.236.103-.438v-3.195c0-.215-.042-.378-.126-.489s-.207-.167-.368-.167c-.084 0-.168.021-.25.062-.083.042-.164.106-.244.194v3.875c.096.103.19.178.28.224zm4.96-4.16c-.082-.116-.213-.173-.394-.173-.188 0-.323.058-.406.173-.082.115-.123.306-.123.573v.552h1.046v-.552c0-.267-.041-.458-.123-.573zm2.824-2.605c0-1.538-1.262-2.785-2.817-2.785-2.22-.092-4.491-.134-6.808-.129-2.316-.004-4.587.037-6.807.129-1.555 0-2.817 1.248-2.817 2.785-.093 1.218-.133 2.435-.13 3.653-.003 1.218.037 2.436.13 3.653 0 1.538 1.262 2.785 2.817 2.785 2.22.093 4.491.134 6.807.129 2.316.004 4.588-.037 6.808-.129 1.555 0 2.817-1.248 2.817-2.785.093-1.217.134-2.435.13-3.653.004-1.218-.037-2.435-.13-3.653zm-15.155 7.752v.092h-1.333v-7.378h-1.379v-1.345h4.091v1.345h-1.379v7.286zm4.741-6.274v6.366h-1.184v-.703c-.218.259-.445.456-.681.592-.236.135-.465.203-.687.203-.273 0-.479-.095-.619-.284-.139-.189-.208-.474-.208-.853v-5.413h1.184v4.88c0 .151.025.26.074.328.05.067.13.102.241.102.087 0 .197-.045.33-.134s.255-.204.366-.343v-4.832h1.184v.091zm4.557 1.516v3.531c0 .453-.093.799-.278 1.039s-.453.36-.804.36c-.231 0-.438-.046-.619-.14-.182-.093-.35-.236-.505-.43v.489h-1.195v-8.723h1.195v2.779c.159-.194.329-.342.508-.443.179-.102.361-.152.544-.152.375 0 .661.136.858.408.197.272.296.668.296 1.188v.094zm4.375.196v1.621h-2.264v1.109c0 .334.039.567.117.696s.211.194.4.194c.196 0 .333-.055.412-.165.078-.109.117-.352.117-.726v-.443h1.218v.57c0 .653-.148 1.144-.445 1.474-.296.331-.74.496-1.329.496-.53 0-.947-.175-1.251-.525-.305-.351-.457-.832-.457-1.445v-2.948c0-.553.167-1.003.502-1.351.334-.348.766-.521 1.296-.521.542 0 .958.161 1.248.483.291.322.437.786.437 1.39v.091z" fill="#fff"/><path fill="#fff" d="M201.826 9.013h-14.662c-1.35 0-2.444.955-2.444 2.132v7.711c0 1.177 1.095 2.132 2.444 2.132h1.995v-2.281h-1.486v-7.393h13.746v7.393h-9.994l-2.266 2.281h12.667c1.35 0 2.444-.955 2.444-2.132v-7.711c0-1.178-1.095-2.132-2.444-2.132z"/></svg>