<svg xmlns="http://www.w3.org/2000/svg" width="240" height="150"><path fill="#EC1B24" d="M139.837 73.024c-.133-1.662-1.229-2.527-2.176-2.621l-.439-.021c-1.094 0-1.619.473-2.221 1.187-.602-.714-1.129-1.187-2.221-1.187l-.439.021c-.947.094-2.041.959-2.178 2.621v.554c.127 1.592 1.326 3.554 4.838 6.019 3.51-2.465 4.713-4.427 4.836-6.019v-.554z"/><path fill="#fff" d="M19 100.084h-8c-1.104 0-2 .896-2 2v4.062c0 1.104.896 2 2 2h.938v2.938l3.062-2.938h4c1.104 0 2-.896 2-2v-4.062c0-1.105-.896-2-2-2z"/><path fill="#fff" d="M137.361 120.228h-6.196v-15.001h-3.099v-5.169h3.099v-3.104c0-4.218 1.747-6.726 6.715-6.726h4.136v5.171h-2.584c-1.937 0-2.062.722-2.062 2.07l-.008 2.588h4.684l-.549 5.169h-4.135v15.002z"/><path fill="#fff" d="M179.999 95.28c-1.106.489-2.29.821-3.539.97 1.271-.762 2.249-1.968 2.709-3.406-1.189.706-2.508 1.218-3.909 1.493-1.124-1.196-2.722-1.942-4.492-1.942-3.398 0-6.154 2.754-6.154 6.154 0 .482.055.952.159 1.403-5.116-.257-9.649-2.708-12.686-6.431-.531.909-.834 1.966-.834 3.094 0 2.135 1.09 4.02 2.738 5.123-1.01-.032-1.955-.309-2.785-.77l-.002.078c0 2.981 2.122 5.469 4.936 6.035-.516.14-1.061.216-1.62.216-.397 0-.783-.039-1.158-.11.783 2.444 3.055 4.224 5.748 4.273-2.104 1.65-4.761 2.634-7.643 2.634-.496 0-.987-.028-1.468-.086 2.724 1.746 5.96 2.766 9.434 2.766 11.321 0 17.51-9.378 17.51-17.511 0-.267-.004-.532-.017-.796 1.203-.869 2.245-1.953 3.073-3.187z"/><g><g fill="#fff"><path d="M17.121 74.205l1.879 1.879v-5h-5l1.914 1.915-3.086 3.085h-5.828v7h7v-5.757l3.121-3.122zm-5.121 6.879h-3v-3h3v3z"/><rect x="8" y="73.084" width="1" height="1"/><rect x="8" y="71.084" width="1" height="1"/><rect x="8" y="69.084" width="1" height="1"/><rect x="8" y="67.084" width="1" height="1"/><rect x="22" y="79.084" width="1" height="1"/><rect x="22" y="77.084" width="1" height="1"/><rect x="22" y="75.084" width="1" height="1"/><rect x="22" y="73.084" width="1" height="1"/><rect x="22" y="71.084" width="1" height="1"/><rect x="22" y="69.084" width="1" height="1"/><rect x="22" y="67.084" width="1" height="1"/><rect x="20" y="67.084" width="1" height="1"/><rect x="18" y="67.084" width="1" height="1"/><rect x="16" y="67.084" width="1" height="1"/><rect x="14" y="67.084" width="1" height="1"/><rect x="12" y="67.084" width="1" height="1"/><rect x="10" y="67.084" width="1" height="1"/><rect x="16" y="81.084" width="1" height="1"/><rect x="18" y="81.084" width="1" height="1"/><rect x="20" y="81.084" width="1" height="1"/><rect x="22" y="81.084" width="1" height="1"/></g><g fill="#D71F26"><path d="M100.174 47.811l-2.673-14.795h-1.384v14.795h-5.154v-35.079h5.154c6.109 0 8.781 3.532 8.781 10.118 0 3.484-.906 6.634-2.863 7.97l3.293 16.991h-5.154zm-4.057-29.973v10.404c1.432 0 3.818-.191 3.818-5.202s-2.386-5.202-3.818-5.202zM107.904 12.732h11.789v5.297h-6.634v9.211h4.772v5.631h-4.772v9.641h6.634v5.298h-11.789v-35.078zM126.326 47.811h-4.057v-35.079h4.057c9.545.047 10.261 3.818 10.261 17.563 0 13.697-.716 17.468-10.261 17.516zm1.098-5.155c3.627 0 3.866-.907 3.818-12.409.048-11.454-.191-12.361-3.818-12.361v24.77z"/></g><rect x="84.562" y="10.167" fill="#fff" width="2.269" height="40"/><g fill="#fff"><path d="M1.24 12.732h5.155c4.486 0 9.068 2.434 9.068 10.5 0 8.066-4.582 10.547-9.068 10.547v14.032h-5.155v-35.079zm5.155 15.797c3.245 0 3.866-1.193 3.866-5.106s-.621-5.441-3.866-5.441v10.547zM24.291 48.192c-6.92 0-6.873-7.588-6.873-7.588v-20.666s-.047-7.588 6.873-7.588 6.873 7.588 6.873 7.588v20.666s.047 7.588-6.873 7.588zm0-30.831c-1.813 0-1.718 2.577-1.718 2.577v20.666s-.096 2.577 1.718 2.577 1.718-2.577 1.718-2.577v-20.666s.096-2.577-1.718-2.577zM39.515 12.732v12.266h.191l.238-.573 4.295-11.693h5.011l-4.725 11.55 5.345 23.529h-5.01l-3.58-15.272-.143-.716h-.143l-.287.716-1.193 2.863v12.409h-5.154v-35.079h5.155zM51.971 12.732h11.789v5.297h-6.634v9.211h4.772v5.631h-4.772v9.641h6.634v5.298h-11.789v-35.078zM75.547 47.811l-2.673-14.795h-1.384v14.795h-5.154v-35.079h5.154c6.108 0 8.781 3.532 8.781 10.118 0 3.484-.906 6.634-2.863 7.97l3.293 16.991h-5.154zm-4.057-29.973v10.404c1.432 0 3.818-.191 3.818-5.202s-2.386-5.202-3.818-5.202z"/></g></g><path fill="#0071BB" d="M164.491 69.716l5.176 5.265-5.176 5.282-5.158-5.282 5.158-5.265z"/><path fill="#67AC45" d="M192.491 73.206l-.234-.406-.172-.397c-.062-.16-.094-.376-.094-.646 0-.643.246-1.182.74-1.612s1.082-.647 1.768-.647c.678 0 1.264.218 1.762.654s.748.972.748 1.605c0 .25-.039.483-.117.701-.078.219-.205.468-.381.749.404-.126.74-.188 1.012-.188.635 0 1.205.223 1.715.663.508.441.762 1.031.762 1.769 0 .717-.24 1.304-.723 1.76-.484.457-1.053.687-1.707.687-.373 0-.756-.103-1.145-.305-.389-.201-.797-.59-1.223-1.16.082.925.16 1.537.232 1.838s.176.647.312 1.037c.135.389.32.781.561 1.176h-3.629c.123-.196.232-.39.326-.576.092-.188.176-.394.248-.616l.172-.521c.041-.127.092-.317.148-.578.057-.259.133-.846.225-1.76-.424.581-.832.971-1.221 1.169-.391.196-.777.296-1.162.296-.643 0-1.207-.229-1.691-.687-.482-.456-.725-1.043-.725-1.76 0-.716.252-1.3.758-1.753.502-.452 1.082-.679 1.736-.679.239-.001.571.061.999.187z"/><path d="M225.901 70.227l.227.34.246.348c.094.125.203.254.332.393.27.254.658.582 1.17.975.271.196.535.406.805.622.373.297.703.574.996.828.42.367.732.75.943 1.156.223.375.332.744.332 1.11 0 .169-.023.34-.068.516-.049.181-.123.351-.229.519-.197.348-.484.597-.855.756-.373.157-.746.237-1.119.237-.326 0-.637-.054-.934-.158-.299-.104-.545-.239-.744-.406l-.734-.726c0 .444.041.835.125 1.169.078.335.191.679.33 1.023.139.346.271.63.393.856.123.229.271.459.447.696h-4.123c.289-.403.564-.903.82-1.493.209-.563.365-1.312.471-2.251l-.717.71c-.186.159-.43.295-.727.406-.295.117-.619.173-.969.173-.363 0-.734-.08-1.119-.237-.385-.16-.67-.412-.863-.762-.193-.35-.289-.693-.289-1.029 0-.355.105-.725.314-1.105.209-.377.48-.725.812-1.041.332-.316.982-.84 1.949-1.57.268-.207.492-.385.672-.54.18-.151.34-.297.479-.435.246-.258.445-.505.598-.741l.225-.34c.037-.059.287-.567.404-.627"/><g fill="#fff"><path d="M77.373 101.939c-2.079 0-3.77 1.691-3.77 3.769 0 2.079 1.691 3.77 3.77 3.77s3.77-1.691 3.77-3.77c0-2.078-1.692-3.769-3.77-3.769zm-.996 5.8c-.458-.409-.752-.995-.752-1.656 0-1.23.996-2.226 2.227-2.226.684 0 1.288.314 1.696.8-1.648.177-2.95 1.45-3.171 3.082zM84.488 98.093h-1.498v-1.498h-1.498v1.498h-7.49c0-.721-.674-1.498-1.498-1.498h-2.996c-.824 0-1.498.777-1.498 1.498h-1.498c-.824 0-1.498.675-1.498 1.498v11.984c0 .824.674 1.498 1.498 1.498h17.977c.824 0 1.498-.674 1.498-1.498v-11.984c-.001-.823-.675-1.498-1.499-1.498zm-15.887 5.053c-.602 0-1.09-.488-1.09-1.091 0-.601.489-1.09 1.09-1.09.602 0 1.091.489 1.091 1.09-.001.603-.489 1.091-1.091 1.091zm8.772 8.28c-3.153 0-5.717-2.566-5.717-5.718s2.564-5.716 5.717-5.716 5.717 2.564 5.717 5.716-2.565 5.718-5.717 5.718zM46.305 102.567c-1.448 0-2.627 1.178-2.627 2.625 0 1.449 1.179 2.627 2.627 2.627s2.627-1.179 2.627-2.627c0-1.447-1.179-2.625-2.627-2.625zm-.694 4.041c-.319-.285-.524-.693-.524-1.153 0-.857.694-1.552 1.552-1.552.477 0 .897.219 1.182.558-1.149.123-2.056 1.01-2.21 2.147zM51.263 99.887h-1.044v-1.044h-1.043v1.044h-5.219c0-.503-.47-1.044-1.043-1.044h-2.087c-.574 0-1.044.541-1.044 1.044h-1.044c-.574 0-1.043.47-1.043 1.043v8.35c0 .574.47 1.044 1.043 1.044h12.525c.574 0 1.044-.47 1.044-1.044v-8.35c-.001-.573-.471-1.043-1.045-1.043zm-11.07 3.521c-.419 0-.76-.34-.76-.76 0-.419.34-.759.76-.759s.76.34.76.759c0 .42-.341.76-.76.76zm6.112 5.769c-2.197 0-3.983-1.788-3.983-3.984s1.787-3.982 3.983-3.982 3.983 1.787 3.983 3.982-1.787 3.984-3.983 3.984z"/></g><g fill="#666"><path d="M18.55 129.168c1.154 1.162 1.794 2.697 1.794 4.334s-.641 3.178-1.793 4.334c-1.154 1.16-2.698 1.795-4.335 1.795s-3.177-.635-4.334-1.795c-1.153-1.156-1.794-2.697-1.794-4.334 0-1.637.641-3.172 1.794-4.33 1.163-1.158 2.698-1.799 4.334-1.799 1.637.001 3.173.641 4.334 1.795m.785-.785c-1.308-1.312-3.119-2.123-5.119-2.123-3.998 0-7.243 3.244-7.243 7.242 0 2.002.81 3.811 2.123 5.119 1.308 1.316 3.119 2.123 5.12 2.123 4.003 0 7.242-3.24 7.242-7.242 0-1.996-.805-3.806-2.123-5.119z"/><rect x="20.053" y="137.095" transform="matrix(.706 -.708 .708 .706 -92.952 55.649)" width="1.115" height="5.571"/></g><g fill="#666"><path d="M80.565 127.3c1.805 1.819 2.807 4.219 2.807 6.78 0 2.56-1.002 4.969-2.805 6.778-1.803 1.813-4.219 2.806-6.777 2.806-2.561 0-4.971-.992-6.781-2.806-1.803-1.81-2.805-4.219-2.805-6.778 0-2.561 1.002-4.961 2.805-6.772 1.82-1.812 4.221-2.813 6.779-2.813 2.561 0 4.963 1.002 6.777 2.805m1.231-1.227c-2.047-2.053-4.879-3.321-8.006-3.321-6.254 0-11.33 5.076-11.33 11.329 0 3.129 1.268 5.959 3.32 8.006 2.047 2.059 4.879 3.32 8.01 3.32 6.258 0 11.326-5.066 11.326-11.326 0-3.123-1.26-5.956-3.32-8.008z"/><rect x="82.917" y="139.698" transform="matrix(.707 -.707 .707 .707 -77.321 101.44)" width="1.743" height="8.715"/></g><g fill="#fff"><path d="M48.55 129.168c1.154 1.162 1.794 2.697 1.794 4.334s-.641 3.178-1.793 4.334c-1.154 1.16-2.698 1.795-4.335 1.795s-3.177-.635-4.334-1.795c-1.153-1.156-1.794-2.697-1.794-4.334 0-1.637.641-3.172 1.794-4.33 1.163-1.158 2.698-1.799 4.334-1.799 1.637.001 3.173.641 4.334 1.795m.785-.785c-1.308-1.312-3.119-2.123-5.119-2.123-3.998 0-7.243 3.244-7.243 7.242 0 2.002.81 3.811 2.123 5.119 1.308 1.316 3.119 2.123 5.12 2.123 4.003 0 7.242-3.24 7.242-7.242 0-1.996-.805-3.806-2.123-5.119z"/><rect x="50.053" y="137.095" transform="matrix(.706 -.708 .708 .706 -84.146 76.882)" width="1.115" height="5.571"/></g><g fill="#fff"><path d="M110.565 127.3c1.805 1.819 2.807 4.219 2.807 6.78 0 2.56-1.002 4.969-2.805 6.778-1.803 1.813-4.219 2.806-6.777 2.806-2.561 0-4.971-.992-6.781-2.806-1.803-1.81-2.805-4.219-2.805-6.778 0-2.561 1.002-4.961 2.805-6.772 1.82-1.812 4.221-2.813 6.779-2.813 2.561 0 4.963 1.002 6.777 2.805m1.231-1.227c-2.047-2.053-4.879-3.321-8.006-3.321-6.254 0-11.33 5.076-11.33 11.329 0 3.129 1.268 5.959 3.32 8.006 2.047 2.059 4.879 3.32 8.01 3.32 6.258 0 11.326-5.066 11.326-11.326 0-3.123-1.26-5.956-3.32-8.008z"/><rect x="112.917" y="139.698" transform="matrix(.707 -.707 .707 .707 -68.535 122.653)" width="1.743" height="8.715"/></g><polygon fill="#fff" points="111.827,99.418 110.744,98.335 105.328,103.751 99.913,98.334 98.83,99.418 104.244,104.834 98.83,110.251 99.913,111.334 105.328,105.917 110.744,111.334 111.827,110.251 106.411,104.834"/><g><polygon fill="#888" points="45,78.15 49.724,71.852 48.614,71.018 45,75.836 41.386,71.018 40.276,71.852 45,78.15"/><polygon fill="#888" points="80.066,74.989 73.768,70.265 72.934,71.376 77.752,74.989 72.934,78.603 73.768,79.713 80.066,74.989"/><polygon fill="#888" points="100.934,75.083 107.232,79.808 108.066,78.697 103.248,75.083 108.066,71.47 107.232,70.359 100.934,75.083"/></g><path fill="#fff" d="M233.386 100.523c-.59.261-1.221.438-1.887.517.678-.406 1.199-1.05 1.445-1.816-.635.377-1.338.65-2.086.797-.6-.638-1.451-1.036-2.395-1.036-1.814 0-3.283 1.469-3.283 3.282 0 .258.029.508.084.748-2.729-.137-5.146-1.444-6.766-3.43-.283.484-.443 1.049-.443 1.649 0 1.14.58 2.145 1.459 2.732-.537-.017-1.043-.164-1.484-.41l-.002.041c0 1.591 1.131 2.917 2.633 3.219-.275.075-.564.116-.865.116-.211 0-.416-.021-.617-.06.418 1.304 1.629 2.253 3.066 2.279-1.123.88-2.539 1.405-4.076 1.405-.266 0-.527-.016-.783-.046 1.453.932 3.178 1.476 5.031 1.476 6.039 0 9.34-5.003 9.34-9.34l-.01-.425c.641-.462 1.197-1.04 1.639-1.698z"/><path fill="#00B5F0" d="M233.272 99.94c-.59.261-1.221.438-1.887.517.678-.406 1.199-1.05 1.445-1.816-.635.377-1.338.65-2.086.797-.6-.638-1.451-1.036-2.395-1.036-1.814 0-3.283 1.469-3.283 3.282 0 .258.029.508.084.748-2.729-.137-5.146-1.444-6.766-3.43-.283.484-.443 1.049-.443 1.649 0 1.14.58 2.145 1.459 2.732-.537-.017-1.043-.164-1.484-.41l-.002.041c0 1.591 1.131 2.917 2.633 3.219-.275.075-.564.116-.865.116-.211 0-.416-.021-.617-.06.418 1.304 1.629 2.253 3.066 2.279-1.123.88-2.539 1.405-4.076 1.405-.266 0-.527-.016-.783-.046 1.453.932 3.178 1.476 5.031 1.476 6.039 0 9.34-5.003 9.34-9.34l-.01-.425c.641-.462 1.198-1.04 1.639-1.698z"/><g fill="#0091BE"><path d="M233.272 99.94l-.023.009-.021.046.044-.055zM218.827 102.889c-.182-.407-.301-.848-.301-1.321 0-.601.16-1.165.443-1.649 1.619 1.985 4.037 3.293 6.766 3.43-.055-.24-.084-.49-.084-.748 0-1.813 1.469-3.282 3.283-3.282.943 0 1.795.398 2.395 1.036l.328-.094c.541-.404.963-.961 1.174-1.62-.635.377-1.338.65-2.086.797-.6-.638-1.451-1.036-2.395-1.036-1.814 0-3.283 1.469-3.283 3.282 0 .258.029.508.084.748-2.729-.137-5.146-1.444-6.766-3.43-.283.484-.443 1.049-.443 1.649 0 .866.336 1.651.885 2.238zM222.716 109.486c-.514-.009-.996-.141-1.426-.36-.957.538-2.059.849-3.234.849-.266 0-.527-.016-.783-.046.594.38 1.24.676 1.914.917 1.322-.111 2.542-.587 3.529-1.36zM218.499 103.931l.002-.041c.441.246.947.394 1.484.41-.375-.25-.68-.589-.924-.969-.408-.057-.799-.166-1.145-.358l-.002.041c0 .846.326 1.611.852 2.193-.167-.394-.267-.821-.267-1.276zM219.649 107.207c.201.038.406.06.617.06.301 0 .59-.041.865-.116-.602-.121-1.139-.412-1.572-.813-.168-.006-.334-.017-.494-.047.145.45.389.853.697 1.195l-.113-.279z"/></g><g fill="#333"><path d="M135.056 128.757c.991 0 1.924.387 2.625 1.088s1.086 1.633 1.086 2.625v2.746c0 .99-.385 1.924-1.086 2.625s-1.634 1.086-2.625 1.086c-.992 0-1.924-.385-2.625-1.086s-1.087-1.635-1.087-2.625v-2.746c0-.992.386-1.924 1.087-2.625s1.632-1.088 2.625-1.088m0-.978c-2.591 0-4.691 2.1-4.691 4.691v2.746c0 2.59 2.101 4.689 4.691 4.689s4.691-2.1 4.691-4.689v-2.746c0-2.592-2.101-4.691-4.691-4.691zM142.04 140.298c.264.625.441 1.277.529 1.947h.986c-.305-2.605-1.777-4.852-3.883-6.203-.061.342-.158.672-.289.984.367.254.711.543 1.031.863.696.696 1.243 1.507 1.626 2.409zM127.542 142.246c.088-.67.265-1.322.529-1.947.382-.902.929-1.713 1.625-2.408.32-.32.664-.609 1.03-.865-.131-.311-.229-.641-.289-.982-2.104 1.352-3.578 3.598-3.882 6.203h.987z"/></g><circle fill="#ACCC05" cx="142.854" cy="129.375" r="2.5"/><g fill="#666"><path d="M164.999 128.757c.991 0 1.924.387 2.625 1.088s1.086 1.633 1.086 2.625v2.746c0 .99-.385 1.924-1.086 2.625s-1.634 1.086-2.625 1.086c-.992 0-1.924-.385-2.625-1.086s-1.087-1.635-1.087-2.625v-2.746c0-.992.386-1.924 1.087-2.625s1.633-1.088 2.625-1.088m0-.978c-2.591 0-4.691 2.1-4.691 4.691v2.746c0 2.59 2.101 4.689 4.691 4.689s4.691-2.1 4.691-4.689v-2.746c0-2.592-2.101-4.691-4.691-4.691zM171.983 140.298c.264.625.441 1.277.529 1.947h.986c-.305-2.605-1.777-4.852-3.883-6.203-.061.342-.158.672-.289.984.367.254.711.543 1.031.863.697.696 1.244 1.507 1.626 2.409zM157.485 142.246c.088-.67.265-1.322.529-1.947.382-.902.929-1.713 1.625-2.408.32-.32.664-.609 1.03-.865-.131-.311-.229-.641-.289-.982-2.104 1.352-3.578 3.598-3.882 6.203h.987z"/></g></svg>