<svg xmlns="http://www.w3.org/2000/svg" width="240" height="270" viewBox="0 0 240 270"><path fill="#EC1B24" d="M139.837 73.024c-.133-1.662-1.229-2.527-2.176-2.621l-.439-.021c-1.094 0-1.619.473-2.221 1.187-.602-.714-1.129-1.187-2.221-1.187l-.439.021c-.947.094-2.041.959-2.178 2.621v.554c.127 1.592 1.326 3.554 4.838 6.019 3.51-2.465 4.713-4.427 4.836-6.019v-.554z"/><path fill="#fff" d="M19 100.084h-8c-1.104 0-2 .896-2 2v4.062c0 1.104.896 2 2 2h.938v2.938l3.062-2.938h4c1.104 0 2-.896 2-2v-4.062c0-1.105-.896-2-2-2zM137.361 120.228h-6.196v-15.001h-3.099v-5.169h3.099v-3.104c0-4.218 1.747-6.726 6.715-6.726h4.136v5.171h-2.584c-1.937 0-2.062.722-2.062 2.07l-.008 2.588h4.684l-.549 5.169h-4.135v15.002zM179.999 95.28c-1.106.489-2.29.821-3.539.97 1.271-.762 2.249-1.968 2.709-3.406-1.189.706-2.508 1.218-3.909 1.493-1.124-1.196-2.722-1.942-4.492-1.942-3.398 0-6.154 2.754-6.154 6.154 0 .482.055.952.159 1.403-5.116-.257-9.649-2.708-12.686-6.431-.531.909-.834 1.966-.834 3.094 0 2.135 1.09 4.02 2.738 5.123-1.01-.032-1.955-.309-2.785-.77l-.002.078c0 2.981 2.122 5.469 4.936 6.035-.516.14-1.061.216-1.62.216-.397 0-.783-.039-1.158-.11.783 2.444 3.055 4.224 5.748 4.273-2.104 1.65-4.761 2.634-7.643 2.634-.496 0-.987-.028-1.468-.086 2.724 1.746 5.96 2.766 9.434 2.766 11.321 0 17.51-9.378 17.51-17.511 0-.267-.004-.532-.017-.796 1.203-.869 2.245-1.953 3.073-3.187z"/><g><g fill="#fff"><path d="M17.121 74.205l1.879 1.879v-5h-5l1.914 1.915-3.086 3.085h-5.828v7h7v-5.757l3.121-3.122zm-5.121 6.879h-3v-3h3v3zM8 73.084h1v1h-1zM8 71.084h1v1h-1zM8 69.084h1v1h-1zM8 67.084h1v1h-1zM22 79.084h1v1h-1zM22 77.084h1v1h-1zM22 75.084h1v1h-1zM22 73.084h1v1h-1zM22 71.084h1v1h-1zM22 69.084h1v1h-1zM22 67.084h1v1h-1zM20 67.084h1v1h-1zM18 67.084h1v1h-1zM16 67.084h1v1h-1zM14 67.084h1v1h-1zM12 67.084h1v1h-1zM10 67.084h1v1h-1zM16 81.084h1v1h-1zM18 81.084h1v1h-1zM20 81.084h1v1h-1zM22 81.084h1v1h-1z"/></g><g fill="#D71F26"><path d="M100.174 47.811l-2.673-14.795h-1.384v14.795h-5.154v-35.079h5.154c6.109 0 8.781 3.532 8.781 10.118 0 3.484-.906 6.634-2.863 7.97l3.293 16.991h-5.154zm-4.057-29.973v10.404c1.432 0 3.818-.191 3.818-5.202s-2.386-5.202-3.818-5.202zM107.904 12.732h11.789v5.297h-6.634v9.211h4.772v5.631h-4.772v9.641h6.634v5.298h-11.789v-35.078zM126.326 47.811h-4.057v-35.079h4.057c9.545.047 10.261 3.818 10.261 17.563 0 13.697-.716 17.468-10.261 17.516zm1.098-5.155c3.627 0 3.866-.907 3.818-12.409.048-11.454-.191-12.361-3.818-12.361v24.77z"/></g><path fill="#fff" d="M84.562 10.167h2.269v40h-2.269z"/><g fill="#fff"><path d="M1.24 12.732h5.155c4.486 0 9.068 2.434 9.068 10.5 0 8.066-4.582 10.547-9.068 10.547v14.032h-5.155v-35.079zm5.155 15.797c3.245 0 3.866-1.193 3.866-5.106s-.621-5.441-3.866-5.441v10.547zM24.291 48.192c-6.92 0-6.873-7.588-6.873-7.588v-20.666s-.047-7.588 6.873-7.588 6.873 7.588 6.873 7.588v20.666s.047 7.588-6.873 7.588zm0-30.831c-1.813 0-1.718 2.577-1.718 2.577v20.666s-.096 2.577 1.718 2.577 1.718-2.577 1.718-2.577v-20.666s.096-2.577-1.718-2.577zM39.515 12.732v12.266h.191l.238-.573 4.295-11.693h5.011l-4.725 11.55 5.345 23.529h-5.01l-3.58-15.272-.143-.716h-.143l-.287.716-1.193 2.863v12.409h-5.154v-35.079h5.155zM51.971 12.732h11.789v5.297h-6.634v9.211h4.772v5.631h-4.772v9.641h6.634v5.298h-11.789v-35.078zM75.547 47.811l-2.673-14.795h-1.384v14.795h-5.154v-35.079h5.154c6.108 0 8.781 3.532 8.781 10.118 0 3.484-.906 6.634-2.863 7.97l3.293 16.991h-5.154zm-4.057-29.973v10.404c1.432 0 3.818-.191 3.818-5.202s-2.386-5.202-3.818-5.202z"/></g><g fill="#D71F26"><path d="M211.836 41.19l-1.677-9.243h-.859v9.243h-3.223v-21.917h3.223c3.812 0 5.488 2.206 5.488 6.323 0 2.173-.569 4.145-1.794 4.975l2.062 10.619h-3.22zm-2.536-18.73v6.505c.893 0 2.386-.122 2.386-3.251 0-3.133-1.494-3.254-2.386-3.254zM216.666 19.273h7.365v3.308h-4.144v5.759h2.985v3.521h-2.985v6.022h4.144v3.307h-7.365v-21.917zM228.174 41.19h-2.533v-21.917h2.533c5.971.025 6.419 2.382 6.419 10.979 0 8.555-.448 10.915-6.419 10.938zm.687-3.221c2.265 0 2.416-.562 2.388-7.752.028-7.16-.123-7.724-2.388-7.724v15.476z"/></g><path fill="#fff" d="M202.073 17.667h1.416v25h-1.416z"/><g fill="#fff"><path d="M149.999 19.273h3.223c2.807 0 5.664 1.518 5.664 6.559s-2.857 6.595-5.664 6.595v8.764h-3.223v-21.918zm3.223 9.871c2.025 0 2.416-.746 2.416-3.194 0-2.442-.391-3.398-2.416-3.398v6.592zM164.403 41.434c-4.322 0-4.297-4.741-4.297-4.741v-12.917s-.025-4.747 4.297-4.747c4.325 0 4.297 4.747 4.297 4.747v12.917s.029 4.741-4.297 4.741zm0-19.268c-1.128 0-1.074 1.611-1.074 1.611v12.917s-.054 1.61 1.074 1.61c1.137 0 1.074-1.61 1.074-1.61v-12.918c.001 0 .063-1.61-1.074-1.61zM173.925 19.273v7.6659999999999995h.119l.148-.361 2.686-7.305h3.125l-2.953 7.214 3.344 14.703h-3.129l-2.242-9.545-.089-.439h-.084l-.185.439-.74 1.793v7.752h-3.223v-21.917h3.223zM181.709 19.273h7.364v3.308h-4.143v5.759h2.982v3.521h-2.982v6.022h4.143v3.307h-7.364v-21.917zM196.438 41.19l-1.663-9.243h-.87v9.243h-3.221v-21.917h3.221c3.823 0 5.485 2.206 5.485 6.323 0 2.173-.562 4.145-1.783 4.975l2.052 10.619h-3.221zm-2.534-18.73v6.505c.894 0 2.384-.122 2.384-3.251 0-3.133-1.49-3.254-2.384-3.254z"/></g></g><path fill="#0071BB" d="M164.491 69.716l5.176 5.265-5.176 5.282-5.158-5.282 5.158-5.265z"/><path fill="#67AC45" d="M192.491 73.206l-.234-.406-.172-.397c-.062-.16-.094-.376-.094-.646 0-.643.246-1.182.74-1.612s1.082-.647 1.768-.647c.678 0 1.264.218 1.762.654s.748.972.748 1.605c0 .25-.039.483-.117.701-.078.219-.205.468-.381.749.404-.126.74-.188 1.012-.188.635 0 1.205.223 1.715.663.508.441.762 1.031.762 1.769 0 .717-.24 1.304-.723 1.76-.484.457-1.053.687-1.707.687-.373 0-.756-.103-1.145-.305-.389-.201-.797-.59-1.223-1.16.082.925.16 1.537.232 1.838s.176.647.312 1.037c.135.389.32.781.561 1.176h-3.629c.123-.196.232-.39.326-.576.092-.188.176-.394.248-.616l.172-.521c.041-.127.092-.317.148-.578.057-.259.133-.846.225-1.76-.424.581-.832.971-1.221 1.169-.391.196-.777.296-1.162.296-.643 0-1.207-.229-1.691-.687-.482-.456-.725-1.043-.725-1.76 0-.716.252-1.3.758-1.753.502-.452 1.082-.679 1.736-.679.239-.001.571.061.999.187z"/><path d="M225.901 70.227l.227.34.246.348c.094.125.203.254.332.393.27.254.658.582 1.17.975.271.196.535.406.805.622.373.297.703.574.996.828.42.367.732.75.943 1.156.223.375.332.744.332 1.11 0 .169-.023.34-.068.516-.049.181-.123.351-.229.519-.197.348-.484.597-.855.756-.373.157-.746.237-1.119.237-.326 0-.637-.054-.934-.158-.299-.104-.545-.239-.744-.406l-.734-.726c0 .444.041.835.125 1.169.078.335.191.679.33 1.023.139.346.271.63.393.856.123.229.271.459.447.696h-4.123c.289-.403.564-.903.82-1.493.209-.563.365-1.312.471-2.251l-.717.71c-.186.159-.43.295-.727.406-.295.117-.619.173-.969.173-.363 0-.734-.08-1.119-.237-.385-.16-.67-.412-.863-.762-.193-.35-.289-.693-.289-1.029 0-.355.105-.725.314-1.105.209-.377.48-.725.812-1.041.332-.316.982-.84 1.949-1.57.268-.207.492-.385.672-.54.18-.151.34-.297.479-.435.246-.258.445-.505.598-.741l.225-.34c.037-.059.287-.567.404-.627"/><g fill="#fff"><path d="M77.373 101.939c-2.079 0-3.77 1.691-3.77 3.769 0 2.079 1.691 3.77 3.77 3.77s3.77-1.691 3.77-3.77c0-2.078-1.692-3.769-3.77-3.769zm-.996 5.8c-.458-.409-.752-.995-.752-1.656 0-1.23.996-2.226 2.227-2.226.684 0 1.288.314 1.696.8-1.648.177-2.95 1.45-3.171 3.082zM84.488 98.093h-1.498v-1.498h-1.498v1.498h-7.49c0-.721-.674-1.498-1.498-1.498h-2.996c-.824 0-1.498.777-1.498 1.498h-1.498c-.824 0-1.498.675-1.498 1.498v11.984c0 .824.674 1.498 1.498 1.498h17.977c.824 0 1.498-.674 1.498-1.498v-11.984c-.001-.823-.675-1.498-1.499-1.498zm-15.887 5.053c-.602 0-1.09-.488-1.09-1.091 0-.601.489-1.09 1.09-1.09.602 0 1.091.489 1.091 1.09-.001.603-.489 1.091-1.091 1.091zm8.772 8.28c-3.153 0-5.717-2.566-5.717-5.718s2.564-5.716 5.717-5.716 5.717 2.564 5.717 5.716-2.565 5.718-5.717 5.718zM46.305 102.567c-1.448 0-2.627 1.178-2.627 2.625 0 1.449 1.179 2.627 2.627 2.627s2.627-1.179 2.627-2.627c0-1.447-1.179-2.625-2.627-2.625zm-.694 4.041c-.319-.285-.524-.693-.524-1.153 0-.857.694-1.552 1.552-1.552.477 0 .897.219 1.182.558-1.149.123-2.056 1.01-2.21 2.147zM51.263 99.887h-1.044v-1.044h-1.043v1.044h-5.219c0-.503-.47-1.044-1.043-1.044h-2.087c-.574 0-1.044.541-1.044 1.044h-1.044c-.574 0-1.043.47-1.043 1.043v8.35c0 .574.47 1.044 1.043 1.044h12.525c.574 0 1.044-.47 1.044-1.044v-8.35c-.001-.573-.471-1.043-1.045-1.043zm-11.07 3.521c-.419 0-.76-.34-.76-.76 0-.419.34-.759.76-.759s.76.34.76.759c0 .42-.341.76-.76.76zm6.112 5.769c-2.197 0-3.983-1.788-3.983-3.984s1.787-3.982 3.983-3.982 3.983 1.787 3.983 3.982-1.787 3.984-3.983 3.984z"/></g><g fill="#666"><path d="M18.55 129.168c1.154 1.162 1.794 2.697 1.794 4.334s-.641 3.178-1.793 4.334c-1.154 1.16-2.698 1.795-4.335 1.795s-3.177-.635-4.334-1.795c-1.153-1.156-1.794-2.697-1.794-4.334 0-1.637.641-3.172 1.794-4.33 1.163-1.158 2.698-1.799 4.334-1.799 1.637.001 3.173.641 4.334 1.795m.785-.785c-1.308-1.312-3.119-2.123-5.119-2.123-3.998 0-7.243 3.244-7.243 7.242 0 2.002.81 3.811 2.123 5.119 1.308 1.316 3.119 2.123 5.12 2.123 4.003 0 7.242-3.24 7.242-7.242 0-1.996-.805-3.806-2.123-5.119zM18.249 138.299l.788-.789 3.943 3.935-.788.789z"/></g><g fill="#666"><path d="M80.565 127.3c1.805 1.819 2.807 4.219 2.807 6.78 0 2.56-1.002 4.969-2.805 6.778-1.803 1.813-4.219 2.806-6.777 2.806-2.561 0-4.971-.992-6.781-2.806-1.803-1.81-2.805-4.219-2.805-6.778 0-2.561 1.002-4.961 2.805-6.772 1.82-1.812 4.221-2.813 6.779-2.813 2.561 0 4.963 1.002 6.777 2.805m1.231-1.227c-2.047-2.053-4.879-3.321-8.006-3.321-6.254 0-11.33 5.076-11.33 11.329 0 3.129 1.268 5.959 3.32 8.006 2.047 2.059 4.879 3.32 8.01 3.32 6.258 0 11.326-5.066 11.326-11.326 0-3.123-1.26-5.956-3.32-8.008zM80.09 141.59l1.232-1.232 6.162 6.162-1.232 1.232z"/></g><g fill="#fff"><path d="M48.55 129.168c1.154 1.162 1.794 2.697 1.794 4.334s-.641 3.178-1.793 4.334c-1.154 1.16-2.698 1.795-4.335 1.795s-3.177-.635-4.334-1.795c-1.153-1.156-1.794-2.697-1.794-4.334 0-1.637.641-3.172 1.794-4.33 1.163-1.158 2.698-1.799 4.334-1.799 1.637.001 3.173.641 4.334 1.795m.785-.785c-1.308-1.312-3.119-2.123-5.119-2.123-3.998 0-7.243 3.244-7.243 7.242 0 2.002.81 3.811 2.123 5.119 1.308 1.316 3.119 2.123 5.12 2.123 4.003 0 7.242-3.24 7.242-7.242 0-1.996-.805-3.806-2.123-5.119zM48.248 138.298l.788-.789 3.943 3.935-.788.789z"/></g><g fill="#fff"><path d="M110.565 127.3c1.805 1.819 2.807 4.219 2.807 6.78 0 2.56-1.002 4.969-2.805 6.778-1.803 1.813-4.219 2.806-6.777 2.806-2.561 0-4.971-.992-6.781-2.806-1.803-1.81-2.805-4.219-2.805-6.778 0-2.561 1.002-4.961 2.805-6.772 1.82-1.812 4.221-2.813 6.779-2.813 2.561 0 4.963 1.002 6.777 2.805m1.231-1.227c-2.047-2.053-4.879-3.321-8.006-3.321-6.254 0-11.33 5.076-11.33 11.329 0 3.129 1.268 5.959 3.32 8.006 2.047 2.059 4.879 3.32 8.01 3.32 6.258 0 11.326-5.066 11.326-11.326 0-3.123-1.26-5.956-3.32-8.008zM110.089 141.59l1.232-1.232 6.162 6.162-1.232 1.232z"/></g><g><path fill="#fff" d="M110.511 99.884l-.707-.707-4.95 4.95-4.949-4.95-.707.707 4.949 4.95-4.949 4.95.707.707 4.949-4.95 4.95 4.95.707-.707-4.949-4.95z"/><path fill="#3EB778" d="M144.056 157.095l-1.125-1.125-7.875 7.877-7.875-7.877-1.125 1.125 7.875 7.877-7.875 7.877 1.125 1.125 7.875-7.877 7.875 7.877 1.125-1.125-7.875-7.877z"/></g><g><path fill="#888" d="M45 78.15l4.724-6.298-1.11-.834-3.614 4.818-3.614-4.818-1.11.834 4.724 6.298zM80.066 74.989l-6.298-4.724-.834 1.111 4.818 3.613-4.818 3.614.834 1.11 6.298-4.724zM100.934 75.083l6.298 4.725.834-1.111-4.818-3.614 4.818-3.613-.834-1.111-6.298 4.724z"/><path fill="#0076A3" d="M199.561 134.995l-6.299-4.725-.834 1.111 4.818 3.614-4.818 3.614.834 1.11 6.299-4.724zM220.428 135.089l6.299 4.725.834-1.111-4.819-3.614 4.819-3.614-.834-1.109-6.299 4.723z"/></g><g><g fill="#fff"><path d="M189.002 93.896h-1.562c-.859 0-1.562.704-1.562 1.562h-3.125v1.562h10.937999999999999v-1.562h-3.125c-.002-.857-.705-1.562-1.564-1.562zM195.252 98.584v15.625h7.812v-7.812l4.688-3.125v-4.688h-12.5zm3.125 14.062h-1.562v-1.562h1.562v1.562zm0-10.937h-1.562v-1.562h1.562v1.562zm3.125 10.937h-1.562v-1.562h1.562v1.562zm0-10.937h-1.562v-1.562h1.562v1.562zm3.125 0h-1.562v-1.562h1.562v1.562zM182.752 101.709v12.5c0 .859.703 1.562 1.562 1.562h7.812c.859 0 1.562-.704 1.562-1.562v-15.625h-10.938v3.125zm1.562-1.563h3.125v14.062h-3.125v-14.062z"/></g></g><g fill="#666"><path d="M14.417 157.542h1v15h-1zM7.417 164.542h15v1h-15z"/></g><g fill="#666"><path d="M39.919 157.565l-.004-.023-2.311 4.135.874.49.915-1.653v12.028h1v-12.041l.922 1.666.873-.49-2.157-3.895zM51.731 167.916l-.915 1.653v-12.027h-1v12.04l-.922-1.666-.873.49 2.157 3.895.112.217.004.024 2.31-4.136z"/></g><path opacity=".5" fill="#fff" d="M89.182 155.133c-.565-.177-1.185.144-1.373.708l-4.505 14.008-5.864-9.496-6.413 10.063-6.812-10.468-4.221 12.112c-.199.568.098 1.191.663 1.383.566.213 1.186-.097 1.38-.659l2.767-7.939 6.245 9.585 6.368-9.988 6.511 10.557 5.952-18.493c.182-.57-.131-1.184-.698-1.373z"/><path fill="#3EB778" d="M111.634 167.079c-.488-.487-1.127-.731-1.767-.731-.639 0-1.279.243-1.766.731-.174.174-.305.371-.417.576l-4.884-1.776c.03-.155.048-.313.048-.477 0-.242-.045-.472-.109-.693l4.894-2.282c.443.701 1.22 1.17 2.11 1.17 1.382 0 2.501-1.118 2.501-2.5 0-1.381-1.119-2.5-2.501-2.5-1.379 0-2.5 1.119-2.5 2.5 0 .198.029.389.073.574l-4.925 2.297c-.453-.643-1.197-1.065-2.043-1.065-1.381 0-2.5 1.119-2.5 2.5 0 1.382 1.119 2.5 2.5 2.5.927 0 1.727-.51 2.159-1.259l4.903 1.784c-.131.771.097 1.592.692 2.187.488.489 1.128.733 1.768.733.639 0 1.279-.244 1.767-.732.974-.978.974-2.561-.003-3.537zm-1.891-7.483c.828 0 1.501.673 1.501 1.5s-.673 1.5-1.501 1.5c-.827 0-1.5-.673-1.5-1.5s.673-1.5 1.5-1.5zm-9.395 7.306c-.827 0-1.5-.673-1.5-1.5s.673-1.5 1.5-1.5 1.5.673 1.5 1.5-.673 1.5-1.5 1.5zm10.581 3.006c-.283.283-.66.439-1.06.439s-.777-.156-1.06-.44c-.413-.413-.519-1.006-.348-1.526l.056-.155c.072-.157.162-.31.292-.439.282-.283.658-.438 1.059-.438s.777.155 1.06.438c.584.584.585 1.536.001 2.121z"/><path fill="#fff" d="M166.212 172.866h-3.262v-7.895h-1.629v-2.721h1.629v-1.634c0-2.22.92-3.54 3.535-3.54h2.177v2.722h-1.36c-1.018 0-1.086.38-1.086 1.09l-.004 1.362h2.465l-.287 2.721h-2.178v7.895zM201.267 160.773c-.498.221-1.033.37-1.596.438.574-.345 1.015-.889 1.223-1.537-.537.318-1.132.55-1.765.674-.507-.54-1.228-.877-2.024-.877-1.537 0-2.779 1.242-2.779 2.777 0 .217.024.43.072.633-2.309-.116-4.354-1.222-5.724-2.901-.239.409-.376.887-.376 1.396 0 .963.49 1.813 1.235 2.312-.455-.015-.884-.141-1.259-.349v.035c0 1.346.957 2.468 2.229 2.723-.232.063-.479.098-.732.098-.178 0-.353-.017-.521-.049.353 1.103 1.377 1.905 2.593 1.928-.949.744-2.147 1.188-3.448 1.188-.225 0-.445-.013-.662-.038 1.229.788 2.688 1.247 4.258 1.247 5.106 0 7.899-4.231 7.899-7.9l-.008-.36c.541-.392 1.013-.88 1.385-1.438z"/><g fill="#fff"><path d="M230.877 160.524v-2.482h-.828v2.482h-2.483v.828h2.483v2.482h.828v-2.482h2.482v-.828zM225.538 158.042h-4.283c-1.92 0-3.728 1.54-3.728 3.226 0 1.722 1.309 3.153 3.263 3.153l.396.011c-.125.242-.218.526-.218.81 0 .479.259.873.585 1.188l-.743.011c-2.379 0-4.209 1.516-4.209 3.087 0 1.547 2.007 2.515 4.385 2.515 2.712 0 4.209-1.538 4.209-3.085 0-1.241-.365-1.983-1.497-2.784-.388-.273-1.128-.94-1.128-1.331 0-.459.132-.686.822-1.226.708-.553 1.21-1.35 1.21-2.255 0-1.077-.48-1.664-1.38-2.492h1.356l.96-.828zm-1.495 10.648c.032.144.052.291.052.441 0 1.25-.806 2.227-3.117 2.227-1.644 0-2.831-1.04-2.831-2.29 0-1.226 1.473-2.245 3.116-2.228.384.004.742.067 1.066.172.894.62 1.533.972 1.714 1.678zm-2.633-4.663c-1.104-.032-2.152-1.234-2.343-2.684-.19-1.448.549-2.558 1.652-2.524s2.153 1.196 2.343 2.646-.549 2.596-1.652 2.562z"/></g><path fill="#888" d="M40 200.341c-.405.168-.814.328-1.212.481-.656.255-1.269.495-1.808.757v.895c.864-.47 2.098-.882 3.327-1.395 1.869-.779 2.313-1.049 2.313-1.049l.018-1.793s-.7-.539-.918-2.226l-.096.014c-.407 0-.804-.696-.827-1.077-.023-.377.053-1.396.522-1.396l.072.009c-.109-.824-.188-1.57-.15-1.965.14-1.438 1.558-2.957 3.739-2.957 2.18 0 3.599 1.52 3.738 2.957.038.395-.041 1.141-.15 1.965l.072-.009c.47 0 .546 1.019.522 1.396-.022.381-.42 1.077-.826 1.077l-.096-.014c-.219 1.687-.918 2.226-.918 2.226l.017 1.793s.444.27 2.313 1.049c1.229.513 2.463.925 3.327 1.395v-.895c-.539-.261-1.152-.502-1.808-.757-.396-.153-.806-.312-1.212-.481-.938-.391-1.501-.646-1.825-.803l-.009-.988c.263-.326.613-.914.816-1.885.625-.344.989-1.174 1.02-1.668.008-.131.061-1.286-.5-1.883l-.027-.027c.088-.764.112-1.236.081-1.567-.176-1.81-1.92-3.681-4.535-3.681-2.617 0-4.36 1.871-4.535 3.681-.033.329-.008.803.08 1.567l-.027.027c-.561.596-.508 1.75-.5 1.881.031.496.395 1.326 1.021 1.67.203.971.553 1.559.816 1.885l-.009.988c-.324.155-.888.413-1.826.803z"/><path fill="#333" d="M69.95 200.341c-.405.168-.814.328-1.212.481-.656.255-1.269.495-1.808.757v.895c.864-.47 2.098-.882 3.327-1.395 1.869-.779 2.313-1.049 2.313-1.049l.018-1.793s-.7-.539-.918-2.226l-.096.014c-.407 0-.804-.696-.827-1.077-.023-.377.053-1.396.522-1.396l.072.009c-.109-.824-.188-1.57-.15-1.965.14-1.438 1.558-2.957 3.739-2.957 2.18 0 3.599 1.52 3.738 2.957.038.395-.041 1.141-.15 1.965l.072-.009c.47 0 .546 1.019.522 1.396-.022.381-.42 1.077-.826 1.077l-.096-.014c-.219 1.687-.918 2.226-.918 2.226l.017 1.793s.444.27 2.313 1.049c1.229.513 2.463.925 3.327 1.395v-.895c-.539-.261-1.152-.502-1.808-.757-.396-.153-.806-.312-1.212-.481-.938-.391-1.501-.646-1.825-.803l-.009-.988c.263-.326.613-.914.816-1.885.625-.344.989-1.174 1.02-1.668.008-.131.061-1.286-.5-1.883l-.027-.027c.088-.764.112-1.236.081-1.567-.176-1.81-1.92-3.681-4.535-3.681-2.617 0-4.36 1.871-4.535 3.681-.033.329-.008.803.08 1.567l-.027.027c-.561.596-.508 1.75-.5 1.881.031.496.395 1.326 1.021 1.67.203.971.553 1.559.816 1.885l-.009.988c-.324.155-.888.413-1.826.803z"/><g fill="#888"><path d="M107.881 191.118c.938.945 1.459 2.193 1.459 3.525 0 1.331-.521 2.584-1.458 3.524-.938.943-2.194 1.459-3.524 1.459-1.332 0-2.585-.516-3.526-1.459-.938-.94-1.458-2.193-1.458-3.524s.521-2.58 1.458-3.521c.946-.942 2.195-1.463 3.525-1.463 1.331 0 2.581.52 3.524 1.459m.64-.639c-1.064-1.067-2.537-1.727-4.163-1.727-3.252 0-5.892 2.639-5.892 5.891 0 1.627.659 3.099 1.727 4.163 1.064 1.07 2.537 1.727 4.166 1.727 3.254 0 5.889-2.635 5.889-5.89-.001-1.624-.656-3.097-1.727-4.164zM107.63 198.556l.641-.64 3.203 3.205-.641.64z"/></g><g fill="#333"><path d="M137.881 191.118c.938.945 1.46 2.193 1.46 3.525 0 1.331-.521 2.584-1.459 3.524-.938.943-2.193 1.459-3.523 1.459-1.332 0-2.586-.516-3.527-1.459-.938-.94-1.458-2.193-1.458-3.524s.521-2.58 1.458-3.521c.947-.942 2.195-1.463 3.525-1.463 1.331 0 2.581.52 3.524 1.459m.64-.639c-1.064-1.067-2.537-1.727-4.162-1.727-3.253 0-5.893 2.639-5.893 5.891 0 1.627.659 3.099 1.727 4.163 1.064 1.07 2.537 1.727 4.166 1.727 3.254 0 5.889-2.635 5.889-5.89-.001-1.624-.655-3.097-1.727-4.164zM137.632 198.547l.641-.641 3.205 3.205-.641.641z"/></g><g fill="#888"><path d="M157.971 189.366h14v1h-14zM157.971 192.866h14v1h-14zM157.971 196.366h14v1h-14zM157.971 199.947h14v1h-14z"/></g><g fill="#333"><path d="M187.731 189.366h14v1h-14zM187.731 192.866h14v1h-14zM187.731 196.366h14v1h-14zM187.731 199.947h14v1h-14z"/></g><path fill="#E0E5E8" d="M30.042 219.778c5.342 0 10.365 2.08 14.142 5.857 3.777 3.778 5.858 8.801 5.858 14.143s-2.081 10.364-5.858 14.143c-3.777 3.777-8.8 5.857-14.142 5.857s-10.365-2.08-14.142-5.857c-3.777-3.778-5.858-8.801-5.858-14.143s2.081-10.364 5.858-14.143c3.777-3.777 8.8-5.857 14.142-5.857m0-5c-13.807 0-25 11.192-25 25s11.193 25 25 25 25-11.192 25-25-11.193-25-25-25z"/><path fill="#B6C1C8" d="M36.514 215.625l-1.293 4.827c3.36.895 6.44 2.659 8.964 5.183s4.289 5.604 5.183 8.964l4.827-1.293c-2.3-8.605-9.076-15.381-17.681-17.681z"/></svg>