<?xml version="1.0" encoding="utf-8"?>
<!-- Generator: Adobe Illustrator 15.0.2, SVG Export Plug-In . SVG Version: 6.00 Build 0)  -->
<!DOCTYPE svg PUBLIC "-//W3C//DTD SVG 1.1//EN" "http://www.w3.org/Graphics/SVG/1.1/DTD/svg11.dtd">
<svg version="1.1" id="Layer_20" xmlns="http://www.w3.org/2000/svg" xmlns:xlink="http://www.w3.org/1999/xlink" x="0px" y="0px"
	 width="240px" height="120px" viewBox="0 0 240 120" enable-background="new 0 0 240 120" xml:space="preserve">
<path fill="#EC1B24" d="M139.837,12.94c-0.132-1.662-1.229-2.527-2.175-2.621c-0.157-0.015-0.303-0.021-0.439-0.021
	c-1.094,0-1.62,0.473-2.221,1.187c-0.602-0.714-1.129-1.187-2.222-1.187c-0.138,0-0.282,0.007-0.439,0.021
	c-0.946,0.094-2.041,0.959-2.178,2.621v0.554c0.128,1.592,1.327,3.554,4.839,6.019c3.51-2.465,4.712-4.427,4.835-6.019V12.94z"/>
<path fill="#FFFFFF" d="M19,40h-8c-1.104,0-2,0.896-2,2v4.062c0,1.104,0.896,2,2,2h0.938V51L15,48.062h4c1.104,0,2-0.896,2-2V42
	C21,40.896,20.104,40,19,40z"/>
<path fill="#FFFFFF" d="M137.385,60.289h-6.257V45.143H128v-5.219h3.128V36.79c0-4.258,1.765-6.79,6.78-6.79h4.176v5.22h-2.61
	c-1.954,0-2.081,0.729-2.081,2.09l-0.008,2.613h4.729l-0.555,5.219h-4.174V60.289z"/>
<path fill="#FFFFFF" d="M180.489,34.892c-1.142,0.505-2.365,0.848-3.653,1.001c1.312-0.787,2.322-2.033,2.796-3.517
	c-1.228,0.729-2.589,1.258-4.037,1.542c-1.159-1.235-2.81-2.006-4.638-2.006c-3.511,0-6.355,2.845-6.355,6.355
	c0,0.498,0.057,0.983,0.163,1.449c-5.282-0.265-9.964-2.796-13.1-6.641c-0.548,0.938-0.86,2.03-0.86,3.195
	c0,2.205,1.124,4.151,2.827,5.29c-1.042-0.033-2.02-0.318-2.877-0.795c-0.002,0.027-0.002,0.054-0.002,0.08
	c0,3.079,2.191,5.648,5.099,6.232c-0.533,0.145-1.096,0.223-1.675,0.223c-0.409,0-0.808-0.04-1.195-0.114
	c0.809,2.524,3.154,4.362,5.937,4.413c-2.174,1.704-4.916,2.721-7.893,2.721c-0.513,0-1.02-0.029-1.516-0.089
	c2.812,1.803,6.153,2.856,9.742,2.856c11.69,0,18.082-9.685,18.082-18.083c0-0.275-0.005-0.549-0.018-0.822
	C178.558,37.285,179.635,36.166,180.489,34.892z"/>
<g id="Extend">
	<path fill="#FFFFFF" d="M17.121,14.121L19,16v-5h-5l1.914,1.915L12.828,16H7v7h7v-5.757L17.121,14.121z M12,21H9v-3h3V21z"/>
	<rect x="8" y="13" fill="#FFFFFF" width="1" height="1"/>
	<rect x="8" y="11" fill="#FFFFFF" width="1" height="1"/>
	<rect x="8" y="9" fill="#FFFFFF" width="1" height="1"/>
	<rect x="8" y="7" fill="#FFFFFF" width="1" height="1"/>
	<rect x="22" y="19" fill="#FFFFFF" width="1" height="1"/>
	<rect x="22" y="17" fill="#FFFFFF" width="1" height="1"/>
	<rect x="22" y="15" fill="#FFFFFF" width="1" height="1"/>
	<rect x="22" y="13" fill="#FFFFFF" width="1" height="1"/>
	<rect x="22" y="11" fill="#FFFFFF" width="1" height="1"/>
	<rect x="22" y="9" fill="#FFFFFF" width="1" height="1"/>
	<rect x="22" y="7" fill="#FFFFFF" width="1" height="1"/>
	<rect x="20" y="7" fill="#FFFFFF" width="1" height="1"/>
	<rect x="18" y="7" fill="#FFFFFF" width="1" height="1"/>
	<rect x="16" y="7" fill="#FFFFFF" width="1" height="1"/>
	<rect x="14" y="7" fill="#FFFFFF" width="1" height="1"/>
	<rect x="12" y="7" fill="#FFFFFF" width="1" height="1"/>
	<rect x="10" y="7" fill="#FFFFFF" width="1" height="1"/>
	<rect x="16" y="21" fill="#FFFFFF" width="1" height="1"/>
	<rect x="18" y="21" fill="#FFFFFF" width="1" height="1"/>
	<rect x="20" y="21" fill="#FFFFFF" width="1" height="1"/>
	<rect x="22" y="21" fill="#FFFFFF" width="1" height="1"/>
</g>
<g>
	<path fill="#0071BB" d="M164.492,9.632l5.175,5.265l-5.175,5.282l-5.159-5.282L164.492,9.632z"/>
</g>
<g>
	<path fill="#67AC45" d="M192.491,13.122c-0.146-0.262-0.224-0.395-0.233-0.406c-0.053-0.103-0.11-0.235-0.172-0.397
		c-0.062-0.16-0.095-0.376-0.095-0.646c0-0.643,0.247-1.182,0.741-1.612c0.493-0.431,1.082-0.647,1.768-0.647
		c0.677,0,1.264,0.218,1.762,0.654s0.748,0.972,0.748,1.605c0,0.25-0.039,0.483-0.117,0.701c-0.078,0.219-0.205,0.468-0.381,0.749
		c0.403-0.126,0.74-0.188,1.012-0.188c0.634,0,1.205,0.223,1.714,0.663c0.509,0.441,0.763,1.031,0.763,1.769
		c0,0.717-0.24,1.304-0.724,1.76c-0.483,0.457-1.052,0.687-1.707,0.687c-0.373,0-0.755-0.103-1.144-0.305
		c-0.39-0.201-0.798-0.59-1.224-1.16c0.082,0.925,0.161,1.537,0.233,1.838s0.176,0.647,0.312,1.037
		c0.136,0.389,0.321,0.781,0.562,1.176h-3.63c0.124-0.196,0.232-0.39,0.326-0.576c0.093-0.188,0.177-0.394,0.249-0.616
		s0.13-0.397,0.172-0.521c0.041-0.127,0.091-0.317,0.147-0.578c0.057-0.259,0.133-0.846,0.226-1.76
		c-0.424,0.581-0.832,0.971-1.222,1.169c-0.39,0.196-0.777,0.296-1.162,0.296c-0.643,0-1.207-0.229-1.69-0.687
		c-0.483-0.456-0.725-1.043-0.725-1.76c0-0.716,0.252-1.3,0.757-1.753c0.503-0.452,1.083-0.679,1.736-0.679
		C191.732,12.934,192.064,12.996,192.491,13.122z"/>
</g>
<g>
	<path d="M225.902,10.143l0.227,0.34c0.071,0.108,0.151,0.225,0.246,0.348c0.093,0.125,0.203,0.254,0.331,0.393
		c0.27,0.254,0.658,0.582,1.171,0.975c0.271,0.196,0.535,0.406,0.805,0.622c0.372,0.297,0.703,0.574,0.995,0.828
		c0.421,0.367,0.733,0.75,0.944,1.156c0.223,0.375,0.331,0.744,0.331,1.11c0,0.169-0.022,0.34-0.068,0.516
		c-0.048,0.181-0.122,0.351-0.228,0.519c-0.198,0.348-0.484,0.597-0.855,0.756c-0.373,0.157-0.747,0.237-1.119,0.237
		c-0.327,0-0.638-0.054-0.935-0.158c-0.299-0.104-0.545-0.239-0.744-0.406l-0.734-0.726c0,0.444,0.041,0.835,0.125,1.169
		c0.078,0.335,0.192,0.679,0.331,1.023c0.138,0.346,0.271,0.63,0.393,0.856c0.122,0.229,0.271,0.459,0.446,0.696h-4.123
		c0.29-0.403,0.564-0.903,0.82-1.493c0.21-0.563,0.366-1.312,0.471-2.251l-0.716,0.71c-0.187,0.159-0.43,0.295-0.727,0.406
		c-0.296,0.117-0.619,0.173-0.97,0.173c-0.362,0-0.733-0.08-1.119-0.237c-0.384-0.16-0.67-0.412-0.862-0.762
		c-0.194-0.35-0.29-0.693-0.29-1.029c0-0.355,0.105-0.725,0.315-1.105c0.209-0.377,0.479-0.725,0.812-1.041
		c0.332-0.316,0.981-0.84,1.948-1.57c0.269-0.207,0.492-0.385,0.673-0.54c0.18-0.151,0.34-0.297,0.479-0.435
		c0.245-0.258,0.445-0.505,0.597-0.741l0.226-0.34c0.036-0.059,0.286-0.567,0.403-0.627"/>
</g>
<g id="Magnifier">
	<path fill="#444444" d="M208.243,54.186l-4.618-4.617c1.172-1.825,1.857-3.991,1.857-6.321c0-6.48-5.254-11.734-11.734-11.734
		s-11.734,5.254-11.734,11.734c0,6.483,5.254,11.734,11.734,11.734c2.33,0,4.496-0.687,6.32-1.857l4.617,4.618
		c0.327,0.325,0.86,0.325,1.185,0l2.373-2.371C208.568,55.046,208.568,54.513,208.243,54.186z M193.748,51.63
		c-4.62,0-8.381-3.76-8.381-8.382c0-4.621,3.761-8.381,8.381-8.381c4.621,0,8.381,3.76,8.381,8.381
		C202.129,47.87,198.369,51.63,193.748,51.63z"/>
	<path fill="#444444" d="M113.923,50.253l-2.816-2.815c0.714-1.112,1.132-2.433,1.132-3.854c0-3.952-3.204-7.155-7.155-7.155
		c-3.952,0-7.155,3.204-7.155,7.155c0,3.952,3.204,7.155,7.155,7.155c1.42,0,2.741-0.419,3.854-1.132l2.815,2.815
		c0.2,0.199,0.525,0.199,0.722,0l1.447-1.445C114.121,50.777,114.121,50.452,113.923,50.253z M105.084,48.694
		c-2.817,0-5.11-2.292-5.11-5.11s2.293-5.111,5.11-5.111s5.11,2.293,5.11,5.111S107.902,48.694,105.084,48.694z"/>
	<g id="Camera">
		<g>
			<path fill="#FFFFFF" d="M77.373,41.855c-2.079,0-3.77,1.691-3.77,3.769c0,2.079,1.691,3.77,3.77,3.77s3.77-1.691,3.77-3.77
				C81.143,43.546,79.451,41.855,77.373,41.855z M76.377,47.655c-0.458-0.409-0.752-0.995-0.752-1.656
				c0-1.23,0.996-2.226,2.227-2.226c0.684,0,1.288,0.314,1.696,0.8C77.9,44.75,76.598,46.023,76.377,47.655z"/>
			<path fill="#FFFFFF" d="M84.488,38.009H82.99v-1.498h-1.498v1.498h-7.49c0-0.721-0.674-1.498-1.498-1.498h-2.996
				c-0.824,0-1.498,0.777-1.498,1.498h-1.498c-0.824,0-1.498,0.675-1.498,1.498v11.984c0,0.824,0.674,1.498,1.498,1.498h17.977
				c0.824,0,1.498-0.674,1.498-1.498V39.507C85.986,38.684,85.312,38.009,84.488,38.009z M68.601,43.062
				c-0.602,0-1.09-0.488-1.09-1.091c0-0.601,0.489-1.09,1.09-1.09c0.602,0,1.091,0.489,1.091,1.09
				C69.691,42.574,69.203,43.062,68.601,43.062z M77.373,51.342c-3.153,0-5.717-2.566-5.717-5.718s2.564-5.716,5.717-5.716
				s5.717,2.564,5.717,5.716S80.525,51.342,77.373,51.342z"/>
		</g>
		<g>
			<path fill="#FFFFFF" d="M46.305,42.483c-1.448,0-2.627,1.178-2.627,2.625c0,1.449,1.179,2.627,2.627,2.627
				s2.627-1.179,2.627-2.627C48.932,43.661,47.753,42.483,46.305,42.483z M45.611,46.524c-0.319-0.285-0.524-0.693-0.524-1.153
				c0-0.857,0.694-1.552,1.552-1.552c0.477,0,0.897,0.219,1.182,0.558C46.672,44.5,45.765,45.387,45.611,46.524z"/>
			<path fill="#FFFFFF" d="M51.263,39.803h-1.044v-1.044h-1.043v1.044h-5.219c0-0.503-0.47-1.044-1.043-1.044h-2.087
				c-0.574,0-1.044,0.541-1.044,1.044h-1.044c-0.574,0-1.043,0.47-1.043,1.043v8.35c0,0.574,0.47,1.044,1.043,1.044h12.525
				c0.574,0,1.044-0.47,1.044-1.044v-8.35C52.307,40.273,51.837,39.803,51.263,39.803z M40.193,43.324c-0.419,0-0.76-0.34-0.76-0.76
				c0-0.419,0.34-0.759,0.76-0.759s0.76,0.34,0.76,0.759C40.953,42.984,40.612,43.324,40.193,43.324z M46.305,49.093
				c-2.197,0-3.983-1.788-3.983-3.984s1.787-3.982,3.983-3.982s3.983,1.787,3.983,3.982S48.501,49.093,46.305,49.093z"/>
		</g>
	</g>
</g>
<g id="_x31_70_-_Small">
	<g>
		<polygon fill="#888888" points="45,18.066 49.724,11.768 48.614,10.934 45,15.752 41.386,10.934 40.276,11.768 45,18.066 		"/>
	</g>
	<g>
		<polygon fill="#888888" points="80.066,14.905 73.768,10.181 72.934,11.292 77.752,14.905 72.934,18.519 73.768,19.629 
			80.066,14.905 		"/>
	</g>
	<g>
		<polygon fill="#888888" points="100.934,15 107.232,19.724 108.066,18.613 103.248,15 108.066,11.386 107.232,10.275 100.934,15 
					"/>
	</g>
	<g>
		<g>
			<path fill="#D71F26" d="M112.54,109.348l-3.007-16.644h-1.557v16.644h-5.798V69.885h5.798c6.873,0,9.88,3.974,9.88,11.383
				c0,3.92-1.021,7.463-3.222,8.966l3.704,19.114H112.54z M107.976,75.63v11.704c1.611,0,4.295-0.214,4.295-5.853
				C112.271,75.845,109.586,75.63,107.976,75.63z"/>
			<path fill="#D71F26" d="M121.237,69.885h13.261v5.96h-7.462v10.362h5.368v6.335h-5.368v10.847h7.462v5.959h-13.261V69.885z"/>
			<path fill="#D71F26" d="M141.961,109.348h-4.564V69.885h4.564c10.738,0.054,11.544,4.296,11.544,19.759
				C153.505,105.052,152.699,109.294,141.961,109.348z M143.195,103.55c4.081,0,4.35-1.021,4.295-13.96
				c0.055-12.886-0.214-13.906-4.295-13.906V103.55z"/>
		</g>
		<rect x="94.976" y="67" fill="#231F20" width="2.552" height="45"/>
		<g>
			<path fill="#231F20" d="M1.24,69.885c0,0,5.53,0,5.799,0c5.046,0,10.201,2.738,10.201,11.812S12.085,93.562,7.039,93.562v15.785
				H1.24V69.885z M7.039,87.656c3.65,0,4.349-1.342,4.349-5.745c0-4.402-0.698-6.12-4.349-6.12V87.656z"/>
			<path fill="#231F20" d="M27.172,109.778c-7.785,0-7.731-8.538-7.731-8.538V77.992c0,0-0.054-8.537,7.731-8.537
				c7.786,0,7.731,8.537,7.731,8.537v23.248C34.903,101.24,34.958,109.778,27.172,109.778z M27.172,75.093
				c-2.04,0-1.933,2.899-1.933,2.899v23.248c0,0-0.107,2.899,1.933,2.899c2.041,0,1.933-2.899,1.933-2.899V77.992
				C29.105,77.992,29.212,75.093,27.172,75.093z"/>
			<path fill="#231F20" d="M44.299,69.885v13.154v0.645h0.214l0.269-0.645l4.832-13.154h5.638l-5.315,12.993l6.013,26.47h-5.638
				l-4.027-17.181l-0.161-0.806h-0.161l-0.322,0.806l-1.342,3.221v13.96H38.5c0-12.35,0-39.463,0-39.463H44.299z"/>
			<path fill="#231F20" d="M58.312,69.885h13.261v5.96H64.11v10.362h5.369v6.335H64.11v10.847h7.463v5.959H58.312V69.885z"/>
			<path fill="#231F20" d="M84.835,109.348l-3.007-16.644h-1.557v16.644h-5.798V69.885h5.798c6.873,0,9.88,3.974,9.88,11.383
				c0,3.92-1.02,7.463-3.222,8.966l3.704,19.114H84.835z M80.271,75.63v11.704c1.611,0,4.295-0.214,4.295-5.853
				C84.566,75.845,81.882,75.63,80.271,75.63z"/>
		</g>
	</g>
</g>
</svg>
