<svg xmlns="http://www.w3.org/2000/svg" width="180" height="30"><path fill="#bbb" d="M46.213 22.917h-3.262v-7.896h-1.63v-2.721h1.63v-1.633c0-2.22.92-3.54 3.535-3.54h2.177v2.723h-1.36c-1.018 0-1.085.38-1.085 1.09l-.004 1.362h2.465l-.288 2.721h-2.177v7.894z"/><path fill="#bbb" d="M23.506 9.747c-.626.277-1.299.465-2.005.55.721-.432 1.274-1.116 1.535-1.931-.674.4-1.421.69-2.216.847-.637-.678-1.543-1.102-2.547-1.102-1.928 0-3.49 1.562-3.49 3.49 0 .273.031.54.09.795-2.9-.146-5.472-1.535-7.194-3.646-.3.515-.472 1.115-.472 1.754 0 1.211.616 2.279 1.553 2.905-.572-.018-1.11-.175-1.581-.437v.044c0 1.691 1.203 3.102 2.8 3.422-.293.08-.601.123-.919.123-.225 0-.443-.022-.657-.062.444 1.386 1.733 2.396 3.26 2.423-1.194.936-2.699 1.494-4.334 1.494-.282 0-.56-.016-.833-.049 1.544.99 3.379 1.568 5.35 1.568 6.419 0 9.93-5.318 9.93-9.93l-.01-.452c.68-.491 1.272-1.106 1.74-1.806z"/><g fill="#bbb"><path d="M128.787 14.747h-2.021v-2.488h2.079v-.632c0-3.061 1.392-4.127 4.137-4.127.744 0 1.315.119 1.754.198l-.209 2.449c-.286-.099-.572-.158-1.087-.158-.877 0-1.22.632-1.22 1.639v.632h2.44v2.489h-2.44v7.8h-3.432v-7.802z"/><path d="M143.062 15.102c-.381-.118-.763-.118-1.163-.118-1.602 0-2.498 1.204-2.498 3.219v4.344h-3.432v-10.289h3.126v1.896h.039c.591-1.304 1.449-2.133 2.936-2.133.4 0 .82.059 1.163.118l-.171 2.963z"/></g><g fill="#bbb"><polygon points="85.907,9.542 82.907,9.542 82.907,6.542 81.907,6.542 81.907,9.542 78.907,9.542 78.907,10.542 81.907,10.542 81.907,13.542 82.907,13.542 82.907,10.542 85.907,10.542"/><path d="M74.232 16.367c-.468-.331-1.362-1.136-1.362-1.609 0-.555.158-.828.993-1.48.856-.669 1.462-1.63 1.462-2.724 0-1.302-.58-2.011-1.668-3.011h1.641l1.158-1h-5.175c-2.321 0-4.504 1.861-4.504 3.897 0 2.081 1.582 3.812 3.942 3.812l.48.012c-.153.293-.263.636-.263.979 0 .578.311 1.053.705 1.436l-.897.012c-2.874 0-5.086 1.832-5.086 3.73 0 1.869 2.425 3.04 5.299 3.04 3.276 0 5.086-1.859 5.086-3.729-.001-1.501-.443-2.398-1.811-3.365zm-2.765-2.593c-1.333-.04-2.6-1.491-2.831-3.243-.23-1.751.664-3.091 1.998-3.051 1.333.04 2.601 1.445 2.831 3.196s-.664 3.138-1.998 3.098zm-.522 8.859c-1.986 0-3.421-1.257-3.421-2.768 0-1.48 1.779-2.713 3.766-2.691.463.005.896.08 1.288.207 1.079.75 1.852 1.174 2.07 2.028.041.173.063.352.063.533.001 1.51-.973 2.691-3.766 2.691z"/></g><g fill="#bbb"><circle cx="159.564" cy="20.91" r="2.225"/><path d="M168.093 23.136h-3.152c0-4.199-3.404-7.603-7.603-7.603v-3.153c5.94 0 10.755 4.816 10.755 10.756zM170.319 23.136c0-7.169-5.812-12.98-12.98-12.98v-3.246c8.961 0 16.226 7.265 16.226 16.226h-3.246z"/></g><path fill="#bbb" d="M114.373 11.466c0-1.498-1.229-2.713-2.744-2.713-2.161-.09-4.374-.13-6.629-.126-2.256-.004-4.468.036-6.63.126-1.515 0-2.744 1.215-2.744 2.713-.091 1.186-.129 2.371-.127 3.557-.002 1.187.036 2.371.127 3.558 0 1.499 1.229 2.713 2.744 2.713 2.163.09 4.374.13 6.63.126 2.256.004 4.468-.036 6.629-.126 1.514 0 2.744-1.214 2.744-2.713.09-1.187.131-2.371.127-3.558.004-1.186-.036-2.371-.127-3.557zm-11.67 6.366v-5.617l5.869 2.809-5.869 2.808z"/></svg>