<?xml version="1.0" encoding="utf-8"?>
<!-- Generator: Adobe Illustrator 15.1.0, SVG Export Plug-In . SVG Version: 6.00 Build 0)  -->
<!DOCTYPE svg PUBLIC "-//W3C//DTD SVG 1.1//EN" "http://www.w3.org/Graphics/SVG/1.1/DTD/svg11.dtd">
<svg version="1.1" id="Layer_20" xmlns="http://www.w3.org/2000/svg" xmlns:xlink="http://www.w3.org/1999/xlink" x="0px" y="0px"
	 width="240px" height="210px" viewBox="0 0 240 210" enable-background="new 0 0 240 210" xml:space="preserve">
<path fill="#EC1B24" d="M139.837,73.024c-0.133-1.662-1.229-2.527-2.176-2.621c-0.156-0.015-0.303-0.021-0.439-0.021
	c-1.094,0-1.619,0.473-2.221,1.187c-0.602-0.714-1.129-1.187-2.221-1.187c-0.139,0-0.283,0.007-0.439,0.021
	c-0.947,0.094-2.041,0.959-2.178,2.621v0.554c0.127,1.592,1.326,3.554,4.838,6.019c3.51-2.465,4.713-4.427,4.836-6.019V73.024z"/>
<path fill="#FFFFFF" d="M19,100.084h-8c-1.104,0-2,0.896-2,2v4.062c0,1.104,0.896,2,2,2h0.938v2.938L15,108.146h4
	c1.104,0,2-0.896,2-2v-4.062C21,100.979,20.104,100.084,19,100.084z"/>
<path fill="#FFFFFF" d="M137.361,120.228h-6.196v-15.001h-3.099v-5.169h3.099v-3.104c0-4.218,1.747-6.726,6.715-6.726h4.136v5.171
	h-2.584c-1.937,0-2.062,0.722-2.062,2.07l-0.008,2.588h4.684l-0.549,5.169h-4.135V120.228z"/>
<path fill="#FFFFFF" d="M179.999,95.28c-1.106,0.489-2.29,0.821-3.539,0.97c1.271-0.762,2.249-1.968,2.709-3.406
	c-1.189,0.706-2.508,1.218-3.909,1.493c-1.124-1.196-2.722-1.942-4.492-1.942c-3.398,0-6.154,2.754-6.154,6.154
	c0,0.482,0.055,0.952,0.159,1.403c-5.116-0.257-9.649-2.708-12.686-6.431c-0.531,0.909-0.834,1.966-0.834,3.094
	c0,2.135,1.09,4.02,2.738,5.123c-1.01-0.032-1.955-0.309-2.785-0.77c-0.002,0.026-0.002,0.052-0.002,0.078
	c0,2.981,2.122,5.469,4.936,6.035c-0.516,0.14-1.061,0.216-1.62,0.216c-0.397,0-0.783-0.039-1.158-0.11
	c0.783,2.444,3.055,4.224,5.748,4.273c-2.104,1.65-4.761,2.634-7.643,2.634c-0.496,0-0.987-0.028-1.468-0.086
	c2.724,1.746,5.96,2.766,9.434,2.766c11.321,0,17.51-9.378,17.51-17.511c0-0.267-0.004-0.532-0.017-0.796
	C178.129,97.598,179.171,96.514,179.999,95.28z"/>
<g id="Extend">
	<g>
		<path fill="#FFFFFF" d="M17.121,74.205L19,76.084v-5h-5l1.914,1.915l-3.086,3.085H7v7h7v-5.757L17.121,74.205z M12,81.084H9v-3h3
			V81.084z"/>
		<rect x="8" y="73.084" fill="#FFFFFF" width="1" height="1"/>
		<rect x="8" y="71.084" fill="#FFFFFF" width="1" height="1"/>
		<rect x="8" y="69.084" fill="#FFFFFF" width="1" height="1"/>
		<rect x="8" y="67.084" fill="#FFFFFF" width="1" height="1"/>
		<rect x="22" y="79.084" fill="#FFFFFF" width="1" height="1"/>
		<rect x="22" y="77.084" fill="#FFFFFF" width="1" height="1"/>
		<rect x="22" y="75.084" fill="#FFFFFF" width="1" height="1"/>
		<rect x="22" y="73.084" fill="#FFFFFF" width="1" height="1"/>
		<rect x="22" y="71.084" fill="#FFFFFF" width="1" height="1"/>
		<rect x="22" y="69.084" fill="#FFFFFF" width="1" height="1"/>
		<rect x="22" y="67.084" fill="#FFFFFF" width="1" height="1"/>
		<rect x="20" y="67.084" fill="#FFFFFF" width="1" height="1"/>
		<rect x="18" y="67.084" fill="#FFFFFF" width="1" height="1"/>
		<rect x="16" y="67.084" fill="#FFFFFF" width="1" height="1"/>
		<rect x="14" y="67.084" fill="#FFFFFF" width="1" height="1"/>
		<rect x="12" y="67.084" fill="#FFFFFF" width="1" height="1"/>
		<rect x="10" y="67.084" fill="#FFFFFF" width="1" height="1"/>
		<rect x="16" y="81.084" fill="#FFFFFF" width="1" height="1"/>
		<rect x="18" y="81.084" fill="#FFFFFF" width="1" height="1"/>
		<rect x="20" y="81.084" fill="#FFFFFF" width="1" height="1"/>
		<rect x="22" y="81.084" fill="#FFFFFF" width="1" height="1"/>
	</g>
	<g>
		<g>
			<path fill="#D71F26" d="M100.174,47.811l-2.673-14.795h-1.384v14.795h-5.154V12.732h5.154c6.109,0,8.781,3.532,8.781,10.118
				c0,3.484-0.906,6.634-2.863,7.97l3.293,16.991H100.174z M96.117,17.838v10.404c1.432,0,3.818-0.191,3.818-5.202
				S97.549,17.838,96.117,17.838z"/>
			<path fill="#D71F26" d="M107.904,12.732h11.789v5.297h-6.634v9.211h4.772v5.631h-4.772v9.641h6.634v5.298h-11.789V12.732z"/>
			<path fill="#D71F26" d="M126.326,47.811h-4.057V12.732h4.057c9.545,0.047,10.261,3.818,10.261,17.563
				C136.587,43.992,135.871,47.763,126.326,47.811z M127.424,42.656c3.627,0,3.866-0.907,3.818-12.409
				c0.048-11.454-0.191-12.361-3.818-12.361V42.656z"/>
		</g>
		<rect x="84.562" y="10.167" fill="#FFFFFF" width="2.269" height="40"/>
		<g>
			<path fill="#FFFFFF" d="M1.24,12.732c0,0,4.916,0,5.155,0c4.486,0,9.068,2.434,9.068,10.5c0,8.066-4.582,10.547-9.068,10.547
				v14.032H1.24V12.732z M6.395,28.529c3.245,0,3.866-1.193,3.866-5.106s-0.621-5.441-3.866-5.441V28.529z"/>
			<path fill="#FFFFFF" d="M24.291,48.192c-6.92,0-6.873-7.588-6.873-7.588V19.938c0,0-0.047-7.588,6.873-7.588
				c6.92,0,6.873,7.588,6.873,7.588v20.666C31.164,40.604,31.211,48.192,24.291,48.192z M24.291,17.361
				c-1.813,0-1.718,2.577-1.718,2.577v20.666c0,0-0.096,2.577,1.718,2.577c1.814,0,1.718-2.577,1.718-2.577V19.938
				C26.009,19.938,26.105,17.361,24.291,17.361z"/>
			<path fill="#FFFFFF" d="M39.515,12.732v11.693v0.573h0.191l0.238-0.573l4.295-11.693h5.011l-4.725,11.55l5.345,23.529H44.86
				l-3.58-15.272l-0.143-0.716h-0.143l-0.287,0.716l-1.193,2.863v12.409H34.36c0-10.977,0-35.079,0-35.079H39.515z"/>
			<path fill="#FFFFFF" d="M51.971,12.732h11.789v5.297h-6.634v9.211h4.772v5.631h-4.772v9.641h6.634v5.298H51.971V12.732z"/>
			<path fill="#FFFFFF" d="M75.547,47.811l-2.673-14.795H71.49v14.795h-5.154V12.732h5.154c6.108,0,8.781,3.532,8.781,10.118
				c0,3.484-0.906,6.634-2.863,7.97l3.293,16.991H75.547z M71.49,17.838v10.404c1.432,0,3.818-0.191,3.818-5.202
				S72.922,17.838,71.49,17.838z"/>
		</g>
	</g>
</g>
<g>
	<path fill="#0071BB" d="M164.491,69.716l5.176,5.265l-5.176,5.282l-5.158-5.282L164.491,69.716z"/>
</g>
<g>
	<path fill="#67AC45" d="M192.491,73.206c-0.146-0.262-0.225-0.395-0.234-0.406c-0.053-0.103-0.109-0.235-0.172-0.397
		c-0.062-0.16-0.094-0.376-0.094-0.646c0-0.643,0.246-1.182,0.74-1.612s1.082-0.647,1.768-0.647c0.678,0,1.264,0.218,1.762,0.654
		s0.748,0.972,0.748,1.605c0,0.25-0.039,0.483-0.117,0.701c-0.078,0.219-0.205,0.468-0.381,0.749
		c0.404-0.126,0.74-0.188,1.012-0.188c0.635,0,1.205,0.223,1.715,0.663c0.508,0.441,0.762,1.031,0.762,1.769
		c0,0.717-0.24,1.304-0.723,1.76c-0.484,0.457-1.053,0.687-1.707,0.687c-0.373,0-0.756-0.103-1.145-0.305
		c-0.389-0.201-0.797-0.59-1.223-1.16c0.082,0.925,0.16,1.537,0.232,1.838s0.176,0.647,0.312,1.037
		c0.135,0.389,0.32,0.781,0.561,1.176h-3.629c0.123-0.196,0.232-0.39,0.326-0.576c0.092-0.188,0.176-0.394,0.248-0.616
		s0.131-0.397,0.172-0.521c0.041-0.127,0.092-0.317,0.148-0.578c0.057-0.259,0.133-0.846,0.225-1.76
		c-0.424,0.581-0.832,0.971-1.221,1.169c-0.391,0.196-0.777,0.296-1.162,0.296c-0.643,0-1.207-0.229-1.691-0.687
		c-0.482-0.456-0.725-1.043-0.725-1.76c0-0.716,0.252-1.3,0.758-1.753c0.502-0.452,1.082-0.679,1.736-0.679
		C191.731,73.018,192.063,73.08,192.491,73.206z"/>
</g>
<g>
	<path d="M225.901,70.227l0.227,0.34c0.072,0.108,0.152,0.225,0.246,0.348c0.094,0.125,0.203,0.254,0.332,0.393
		c0.27,0.254,0.658,0.582,1.17,0.975c0.271,0.196,0.535,0.406,0.805,0.622c0.373,0.297,0.703,0.574,0.996,0.828
		c0.42,0.367,0.732,0.75,0.943,1.156c0.223,0.375,0.332,0.744,0.332,1.11c0,0.169-0.023,0.34-0.068,0.516
		c-0.049,0.181-0.123,0.351-0.229,0.519c-0.197,0.348-0.484,0.597-0.855,0.756c-0.373,0.157-0.746,0.237-1.119,0.237
		c-0.326,0-0.637-0.054-0.934-0.158c-0.299-0.104-0.545-0.239-0.744-0.406l-0.734-0.726c0,0.444,0.041,0.835,0.125,1.169
		c0.078,0.335,0.191,0.679,0.33,1.023c0.139,0.346,0.271,0.63,0.393,0.856c0.123,0.229,0.271,0.459,0.447,0.696h-4.123
		c0.289-0.403,0.564-0.903,0.82-1.493c0.209-0.563,0.365-1.312,0.471-2.251l-0.717,0.71c-0.186,0.159-0.43,0.295-0.727,0.406
		c-0.295,0.117-0.619,0.173-0.969,0.173c-0.363,0-0.734-0.08-1.119-0.237c-0.385-0.16-0.67-0.412-0.863-0.762
		c-0.193-0.35-0.289-0.693-0.289-1.029c0-0.355,0.105-0.725,0.314-1.105c0.209-0.377,0.48-0.725,0.812-1.041
		c0.332-0.316,0.982-0.84,1.949-1.57c0.268-0.207,0.492-0.385,0.672-0.54c0.18-0.151,0.34-0.297,0.479-0.435
		c0.246-0.258,0.445-0.505,0.598-0.741l0.225-0.34c0.037-0.059,0.287-0.567,0.404-0.627"/>
</g>
<g id="Magnifier">
</g>
<g id="Camera">
	<g>
		<path fill="#FFFFFF" d="M77.373,101.939c-2.079,0-3.77,1.691-3.77,3.769c0,2.079,1.691,3.77,3.77,3.77s3.77-1.691,3.77-3.77
			C81.143,103.63,79.451,101.939,77.373,101.939z M76.377,107.739c-0.458-0.409-0.752-0.995-0.752-1.656
			c0-1.23,0.996-2.226,2.227-2.226c0.684,0,1.288,0.314,1.696,0.8C77.9,104.834,76.598,106.107,76.377,107.739z"/>
		<path fill="#FFFFFF" d="M84.488,98.093H82.99v-1.498h-1.498v1.498h-7.49c0-0.721-0.674-1.498-1.498-1.498h-2.996
			c-0.824,0-1.498,0.777-1.498,1.498h-1.498c-0.824,0-1.498,0.675-1.498,1.498v11.984c0,0.824,0.674,1.498,1.498,1.498h17.977
			c0.824,0,1.498-0.674,1.498-1.498V99.591C85.986,98.768,85.312,98.093,84.488,98.093z M68.601,103.146
			c-0.602,0-1.09-0.488-1.09-1.091c0-0.601,0.489-1.09,1.09-1.09c0.602,0,1.091,0.489,1.091,1.09
			C69.691,102.658,69.203,103.146,68.601,103.146z M77.373,111.426c-3.153,0-5.717-2.566-5.717-5.718s2.564-5.716,5.717-5.716
			s5.717,2.564,5.717,5.716S80.525,111.426,77.373,111.426z"/>
	</g>
	<g>
		<path fill="#FFFFFF" d="M46.305,102.567c-1.448,0-2.627,1.178-2.627,2.625c0,1.449,1.179,2.627,2.627,2.627
			s2.627-1.179,2.627-2.627C48.932,103.745,47.753,102.567,46.305,102.567z M45.611,106.608c-0.319-0.285-0.524-0.693-0.524-1.153
			c0-0.857,0.694-1.552,1.552-1.552c0.477,0,0.897,0.219,1.182,0.558C46.672,104.584,45.765,105.471,45.611,106.608z"/>
		<path fill="#FFFFFF" d="M51.263,99.887h-1.044v-1.044h-1.043v1.044h-5.219c0-0.503-0.47-1.044-1.043-1.044h-2.087
			c-0.574,0-1.044,0.541-1.044,1.044h-1.044c-0.574,0-1.043,0.47-1.043,1.043v8.35c0,0.574,0.47,1.044,1.043,1.044h12.525
			c0.574,0,1.044-0.47,1.044-1.044v-8.35C52.307,100.357,51.837,99.887,51.263,99.887z M40.193,103.408
			c-0.419,0-0.76-0.34-0.76-0.76c0-0.419,0.34-0.759,0.76-0.759s0.76,0.34,0.76,0.759C40.953,103.068,40.612,103.408,40.193,103.408
			z M46.305,109.177c-2.197,0-3.983-1.788-3.983-3.984s1.787-3.982,3.983-3.982s3.983,1.787,3.983,3.982
			S48.501,109.177,46.305,109.177z"/>
	</g>
</g>
<g>
	<path fill="#666666" d="M18.55,129.168L18.55,129.168c1.154,1.162,1.794,2.697,1.794,4.334s-0.641,3.178-1.793,4.334
		c-1.154,1.16-2.698,1.795-4.335,1.795c-1.637,0-3.177-0.635-4.334-1.795c-1.153-1.156-1.794-2.697-1.794-4.334
		c0-1.637,0.641-3.172,1.794-4.33c1.163-1.158,2.698-1.799,4.334-1.799C15.853,127.374,17.389,128.014,18.55,129.168
		 M19.335,128.383c-1.308-1.312-3.119-2.123-5.119-2.123c-3.998,0-7.243,3.244-7.243,7.242c0,2.002,0.81,3.811,2.123,5.119
		c1.308,1.316,3.119,2.123,5.12,2.123c4.003,0,7.242-3.24,7.242-7.242C21.458,131.506,20.653,129.696,19.335,128.383L19.335,128.383
		z"/>
	
		<rect x="20.053" y="137.095" transform="matrix(0.7064 -0.7078 0.7078 0.7064 -92.9521 55.649)" fill="#666666" width="1.115" height="5.571"/>
</g>
<g>
	<path fill="#666666" d="M80.565,127.3L80.565,127.3c1.805,1.819,2.807,4.219,2.807,6.78c0,2.56-1.002,4.969-2.805,6.778
		c-1.803,1.813-4.219,2.806-6.777,2.806c-2.561,0-4.971-0.992-6.781-2.806c-1.803-1.81-2.805-4.219-2.805-6.778
		c0-2.561,1.002-4.961,2.805-6.772c1.82-1.812,4.221-2.813,6.779-2.813C76.349,124.495,78.751,125.497,80.565,127.3 M81.796,126.073
		c-2.047-2.053-4.879-3.321-8.006-3.321c-6.254,0-11.33,5.076-11.33,11.329c0,3.129,1.268,5.959,3.32,8.006
		c2.047,2.059,4.879,3.32,8.01,3.32c6.258,0,11.326-5.066,11.326-11.326C85.116,130.958,83.856,128.125,81.796,126.073
		L81.796,126.073z"/>
	
		<rect x="82.917" y="139.698" transform="matrix(0.7071 -0.7071 0.7071 0.7071 -77.3214 101.4399)" fill="#666666" width="1.743" height="8.715"/>
</g>
<g>
	<path fill="#FFFFFF" d="M48.55,129.168L48.55,129.168c1.154,1.162,1.794,2.697,1.794,4.334s-0.641,3.178-1.793,4.334
		c-1.154,1.16-2.698,1.795-4.335,1.795c-1.637,0-3.177-0.635-4.334-1.795c-1.153-1.156-1.794-2.697-1.794-4.334
		c0-1.637,0.641-3.172,1.794-4.33c1.163-1.158,2.698-1.799,4.334-1.799C45.853,127.374,47.389,128.014,48.55,129.168
		 M49.335,128.383c-1.308-1.312-3.119-2.123-5.119-2.123c-3.998,0-7.243,3.244-7.243,7.242c0,2.002,0.81,3.811,2.123,5.119
		c1.308,1.316,3.119,2.123,5.12,2.123c4.003,0,7.242-3.24,7.242-7.242C51.458,131.506,50.653,129.696,49.335,128.383L49.335,128.383
		z"/>
	
		<rect x="50.053" y="137.095" transform="matrix(0.7064 -0.7078 0.7078 0.7064 -84.1456 76.8819)" fill="#FFFFFF" width="1.115" height="5.571"/>
</g>
<g>
	<path fill="#FFFFFF" d="M110.565,127.3L110.565,127.3c1.805,1.819,2.807,4.219,2.807,6.78c0,2.56-1.002,4.969-2.805,6.778
		c-1.803,1.813-4.219,2.806-6.777,2.806c-2.561,0-4.971-0.992-6.781-2.806c-1.803-1.81-2.805-4.219-2.805-6.778
		c0-2.561,1.002-4.961,2.805-6.772c1.82-1.812,4.221-2.813,6.779-2.813C106.349,124.495,108.751,125.497,110.565,127.3
		 M111.796,126.073c-2.047-2.053-4.879-3.321-8.006-3.321c-6.254,0-11.33,5.076-11.33,11.329c0,3.129,1.268,5.959,3.32,8.006
		c2.047,2.059,4.879,3.32,8.01,3.32c6.258,0,11.326-5.066,11.326-11.326C115.116,130.958,113.856,128.125,111.796,126.073
		L111.796,126.073z"/>
	
		<rect x="112.917" y="139.698" transform="matrix(0.7071 -0.7071 0.7071 0.7071 -68.5346 122.6531)" fill="#FFFFFF" width="1.743" height="8.715"/>
</g>
<g id="Close_-_Thin">
	<polygon fill="#FFFFFF" points="110.511,99.884 109.804,99.177 104.854,104.127 99.905,99.177 99.198,99.884 104.147,104.834 
		99.198,109.784 99.905,110.491 104.854,105.541 109.804,110.491 110.511,109.784 105.562,104.834 	"/>
	<polygon fill="#3EB778" points="140.712,160.022 140.005,159.315 135.056,164.265 130.106,159.315 129.399,160.022 
		134.349,164.972 129.399,169.922 130.106,170.629 135.056,165.679 140.005,170.629 140.712,169.922 135.763,164.972 	"/>
</g>
<g id="_x31_70_-_Small">
	<g>
		<polygon fill="#888888" points="45,78.15 49.724,71.852 48.614,71.018 45,75.836 41.386,71.018 40.276,71.852 45,78.15 		"/>
	</g>
	<g>
		<polygon fill="#888888" points="80.066,74.989 73.768,70.265 72.934,71.376 77.752,74.989 72.934,78.603 73.768,79.713 
			80.066,74.989 		"/>
	</g>
	<g>
		<polygon fill="#888888" points="100.934,75.083 107.232,79.808 108.066,78.697 103.248,75.083 108.066,71.47 107.232,70.359 
			100.934,75.083 		"/>
	</g>
	<g>
		<polygon fill="#0076A3" points="199.561,134.995 193.262,130.27 192.428,131.381 197.246,134.995 192.428,138.609 
			193.262,139.719 199.561,134.995 		"/>
	</g>
	<g>
		<polygon fill="#0076A3" points="220.428,135.089 226.727,139.814 227.561,138.703 222.742,135.089 227.561,131.475 
			226.727,130.366 220.428,135.089 		"/>
	</g>
</g>
<g>
	<path fill="#FFFFFF" d="M233.386,100.523c-0.59,0.261-1.221,0.438-1.887,0.517c0.678-0.406,1.199-1.05,1.445-1.816
		c-0.635,0.377-1.338,0.65-2.086,0.797c-0.6-0.638-1.451-1.036-2.395-1.036c-1.814,0-3.283,1.469-3.283,3.282
		c0,0.258,0.029,0.508,0.084,0.748c-2.729-0.137-5.146-1.444-6.766-3.43c-0.283,0.484-0.443,1.049-0.443,1.649
		c0,1.14,0.58,2.145,1.459,2.732c-0.537-0.017-1.043-0.164-1.484-0.41c-0.002,0.014-0.002,0.027-0.002,0.041
		c0,1.591,1.131,2.917,2.633,3.219c-0.275,0.075-0.564,0.116-0.865,0.116c-0.211,0-0.416-0.021-0.617-0.06
		c0.418,1.304,1.629,2.253,3.066,2.279c-1.123,0.88-2.539,1.405-4.076,1.405c-0.266,0-0.527-0.016-0.783-0.046
		c1.453,0.932,3.178,1.476,5.031,1.476c6.039,0,9.34-5.003,9.34-9.34c0-0.143-0.002-0.284-0.01-0.425
		C232.388,101.759,232.944,101.181,233.386,100.523z"/>
	<path fill="#00B5F0" d="M233.272,99.94c-0.59,0.261-1.221,0.438-1.887,0.517c0.678-0.406,1.199-1.05,1.445-1.816
		c-0.635,0.377-1.338,0.65-2.086,0.797c-0.6-0.638-1.451-1.036-2.395-1.036c-1.814,0-3.283,1.469-3.283,3.282
		c0,0.258,0.029,0.508,0.084,0.748c-2.729-0.137-5.146-1.444-6.766-3.43c-0.283,0.484-0.443,1.049-0.443,1.649
		c0,1.14,0.58,2.145,1.459,2.732c-0.537-0.017-1.043-0.164-1.484-0.41c-0.002,0.014-0.002,0.027-0.002,0.041
		c0,1.591,1.131,2.917,2.633,3.219c-0.275,0.075-0.564,0.116-0.865,0.116c-0.211,0-0.416-0.021-0.617-0.06
		c0.418,1.304,1.629,2.253,3.066,2.279c-1.123,0.88-2.539,1.405-4.076,1.405c-0.266,0-0.527-0.016-0.783-0.046
		c1.453,0.932,3.178,1.476,5.031,1.476c6.039,0,9.34-5.003,9.34-9.34c0-0.143-0.002-0.284-0.01-0.425
		C232.274,101.176,232.831,100.598,233.272,99.94z"/>
	<g>
		<path fill="#0091BE" d="M233.272,99.94c-0.008,0.003-0.016,0.005-0.023,0.009c-0.008,0.015-0.014,0.031-0.021,0.046
			C233.241,99.976,233.259,99.959,233.272,99.94z"/>
		<path fill="#0091BE" d="M218.827,102.889c-0.182-0.407-0.301-0.848-0.301-1.321c0-0.601,0.16-1.165,0.443-1.649
			c1.619,1.985,4.037,3.293,6.766,3.43c-0.055-0.24-0.084-0.49-0.084-0.748c0-1.813,1.469-3.282,3.283-3.282
			c0.943,0,1.795,0.398,2.395,1.036c0.113-0.022,0.217-0.066,0.328-0.094c0.541-0.404,0.963-0.961,1.174-1.62
			c-0.635,0.377-1.338,0.65-2.086,0.797c-0.6-0.638-1.451-1.036-2.395-1.036c-1.814,0-3.283,1.469-3.283,3.282
			c0,0.258,0.029,0.508,0.084,0.748c-2.729-0.137-5.146-1.444-6.766-3.43c-0.283,0.484-0.443,1.049-0.443,1.649
			C217.942,101.517,218.278,102.302,218.827,102.889z"/>
		<path fill="#0091BE" d="M222.716,109.486c-0.514-0.009-0.996-0.141-1.426-0.36c-0.957,0.538-2.059,0.849-3.234,0.849
			c-0.266,0-0.527-0.016-0.783-0.046c0.594,0.38,1.24,0.676,1.914,0.917C220.509,110.735,221.729,110.259,222.716,109.486z"/>
		<path fill="#0091BE" d="M218.499,103.931c0-0.014,0-0.027,0.002-0.041c0.441,0.246,0.947,0.394,1.484,0.41
			c-0.375-0.25-0.68-0.589-0.924-0.969c-0.408-0.057-0.799-0.166-1.145-0.358c-0.002,0.014-0.002,0.027-0.002,0.041
			c0,0.846,0.326,1.611,0.852,2.193C218.599,104.813,218.499,104.386,218.499,103.931z"/>
		<path fill="#0091BE" d="M219.649,107.207c0.201,0.038,0.406,0.06,0.617,0.06c0.301,0,0.59-0.041,0.865-0.116
			c-0.602-0.121-1.139-0.412-1.572-0.813c-0.168-0.006-0.334-0.017-0.494-0.047c0.145,0.45,0.389,0.853,0.697,1.195
			C219.724,107.392,219.681,107.303,219.649,107.207z"/>
	</g>
</g>
<g>
	<path fill="#333333" d="M135.056,128.757c0.991,0,1.924,0.387,2.625,1.088s1.086,1.633,1.086,2.625v2.746
		c0,0.99-0.385,1.924-1.086,2.625s-1.634,1.086-2.625,1.086c-0.992,0-1.924-0.385-2.625-1.086s-1.087-1.635-1.087-2.625v-2.746
		c0-0.992,0.386-1.924,1.087-2.625S134.063,128.757,135.056,128.757 M135.056,127.779c-2.591,0-4.691,2.1-4.691,4.691v2.746
		c0,2.59,2.101,4.689,4.691,4.689c2.59,0,4.691-2.1,4.691-4.689v-2.746C139.747,129.878,137.646,127.779,135.056,127.779
		L135.056,127.779z"/>
	<g>
		<path fill="#333333" d="M142.04,140.298c0.264,0.625,0.441,1.277,0.529,1.947h0.986c-0.305-2.605-1.777-4.852-3.883-6.203
			c-0.061,0.342-0.158,0.672-0.289,0.984c0.367,0.254,0.711,0.543,1.031,0.863C141.11,138.585,141.657,139.396,142.04,140.298z"/>
		<path fill="#333333" d="M127.542,142.246c0.088-0.67,0.265-1.322,0.529-1.947c0.382-0.902,0.929-1.713,1.625-2.408
			c0.32-0.32,0.664-0.609,1.03-0.865c-0.131-0.311-0.229-0.641-0.289-0.982c-2.104,1.352-3.578,3.598-3.882,6.203H127.542z"/>
	</g>
</g>
<circle fill="#ACCC05" cx="142.854" cy="129.375" r="2.5"/>
<g>
	<path fill="#666666" d="M164.999,128.757c0.991,0,1.924,0.387,2.625,1.088s1.086,1.633,1.086,2.625v2.746
		c0,0.99-0.385,1.924-1.086,2.625s-1.634,1.086-2.625,1.086c-0.992,0-1.924-0.385-2.625-1.086s-1.087-1.635-1.087-2.625v-2.746
		c0-0.992,0.386-1.924,1.087-2.625S164.007,128.757,164.999,128.757 M164.999,127.779c-2.591,0-4.691,2.1-4.691,4.691v2.746
		c0,2.59,2.101,4.689,4.691,4.689c2.59,0,4.691-2.1,4.691-4.689v-2.746C169.69,129.878,167.589,127.779,164.999,127.779
		L164.999,127.779z"/>
	<g>
		<path fill="#666666" d="M171.983,140.298c0.264,0.625,0.441,1.277,0.529,1.947h0.986c-0.305-2.605-1.777-4.852-3.883-6.203
			c-0.061,0.342-0.158,0.672-0.289,0.984c0.367,0.254,0.711,0.543,1.031,0.863C171.054,138.585,171.601,139.396,171.983,140.298z"/>
		<path fill="#666666" d="M157.485,142.246c0.088-0.67,0.265-1.322,0.529-1.947c0.382-0.902,0.929-1.713,1.625-2.408
			c0.32-0.32,0.664-0.609,1.03-0.865c-0.131-0.311-0.229-0.641-0.289-0.982c-2.104,1.352-3.578,3.598-3.882,6.203H157.485z"/>
	</g>
</g>
<g id="video_camera">
	<g id="photo_roll">
		<g>
			<path fill="#FFFFFF" d="M189.002,93.896h-1.562c-0.859,0-1.562,0.704-1.562,1.562h-3.125v1.562h4.688h1.562h4.688v-1.562h-3.125
				C190.564,94.601,189.861,93.896,189.002,93.896z"/>
			<path fill="#FFFFFF" d="M195.252,98.584v15.625h7.812v-7.812l4.688-3.125v-4.688H195.252z M198.377,112.646h-1.562v-1.562h1.562
				V112.646z M198.377,101.709h-1.562v-1.562h1.562V101.709z M201.502,112.646h-1.562v-1.562h1.562V112.646z M201.502,101.709
				h-1.562v-1.562h1.562V101.709z M204.627,101.709h-1.562v-1.562h1.562V101.709z"/>
			<path fill="#FFFFFF" d="M182.752,101.709v12.5c0,0.859,0.703,1.562,1.562,1.562h7.812c0.859,0,1.562-0.704,1.562-1.562v-12.5
				v-3.125h-10.938V101.709z M184.314,100.146h3.125v14.062h-3.125V100.146z"/>
		</g>
	</g>
	<g id="Movie_clap">
	</g>
</g>
<g>
	<rect x="14.417" y="157.542" fill="#666666" width="1" height="15"/>
	<rect x="7.417" y="164.542" fill="#666666" width="15" height="1"/>
</g>
<g>
	<polygon fill="#666666" points="39.919,157.565 39.915,157.542 37.604,161.677 38.478,162.167 39.393,160.514 39.393,172.542 
		40.393,172.542 40.393,160.501 41.315,162.167 42.188,161.677 40.031,157.782 	"/>
	<polygon fill="#666666" points="51.731,167.916 50.816,169.569 50.816,157.542 49.816,157.542 49.816,169.582 48.894,167.916 
		48.021,168.406 50.178,172.301 50.29,172.518 50.294,172.542 52.604,168.406 	"/>
</g>
<path opacity="0.5" fill="#FFFFFF" d="M89.182,155.133c-0.565-0.177-1.185,0.144-1.373,0.708l-4.505,14.008l-5.864-9.496
	l-6.413,10.063l-6.812-10.468l-4.221,12.112c-0.199,0.568,0.098,1.191,0.663,1.383c0.566,0.213,1.186-0.097,1.38-0.659l2.767-7.939
	l6.245,9.585l6.368-9.988l6.511,10.557l5.952-18.493C90.062,155.936,89.749,155.322,89.182,155.133z"/>
<path fill="#3EB778" d="M111.634,167.079c-0.488-0.487-1.127-0.731-1.767-0.731c-0.639,0-1.279,0.243-1.766,0.731
	c-0.174,0.174-0.305,0.371-0.417,0.576l-4.884-1.776c0.03-0.155,0.048-0.313,0.048-0.477c0-0.242-0.045-0.472-0.109-0.693
	l4.894-2.282c0.443,0.701,1.22,1.17,2.11,1.17c1.382,0,2.501-1.118,2.501-2.5c0-1.381-1.119-2.5-2.501-2.5
	c-1.379,0-2.5,1.119-2.5,2.5c0,0.198,0.029,0.389,0.073,0.574l-4.925,2.297c-0.453-0.643-1.197-1.065-2.043-1.065
	c-1.381,0-2.5,1.119-2.5,2.5c0,1.382,1.119,2.5,2.5,2.5c0.927,0,1.727-0.51,2.159-1.259l4.903,1.784
	c-0.131,0.771,0.097,1.592,0.692,2.187c0.488,0.489,1.128,0.733,1.768,0.733c0.639,0,1.279-0.244,1.767-0.732
	C112.611,169.638,112.611,168.055,111.634,167.079z M109.743,159.596c0.828,0,1.501,0.673,1.501,1.5s-0.673,1.5-1.501,1.5
	c-0.827,0-1.5-0.673-1.5-1.5S108.916,159.596,109.743,159.596z M100.348,166.902c-0.827,0-1.5-0.673-1.5-1.5s0.673-1.5,1.5-1.5
	s1.5,0.673,1.5,1.5S101.175,166.902,100.348,166.902z M110.929,169.908c-0.283,0.283-0.66,0.439-1.06,0.439s-0.777-0.156-1.06-0.44
	c-0.413-0.413-0.519-1.006-0.348-1.526l0.056-0.155c0.072-0.157,0.162-0.31,0.292-0.439c0.282-0.283,0.658-0.438,1.059-0.438
	s0.777,0.155,1.06,0.438C111.512,168.371,111.513,169.323,110.929,169.908z"/>
<g>
	<path fill="#FFFFFF" d="M166.212,172.866h-3.262v-7.895h-1.629v-2.721h1.629v-1.634c0-2.22,0.92-3.54,3.535-3.54h2.177v2.722h-1.36
		c-1.018,0-1.086,0.38-1.086,1.09l-0.004,1.362h2.465l-0.287,2.721h-2.178V172.866z"/>
</g>
<g>
	<path fill="#FFFFFF" d="M203.005,159.695c-0.626,0.277-1.299,0.466-2.005,0.551c0.721-0.433,1.274-1.117,1.535-1.932
		c-0.675,0.4-1.422,0.69-2.217,0.847c-0.637-0.679-1.543-1.102-2.547-1.102c-1.928,0-3.49,1.562-3.49,3.489
		c0,0.273,0.03,0.541,0.09,0.796c-2.9-0.146-5.473-1.535-7.193-3.646c-0.301,0.515-0.473,1.114-0.473,1.755
		c0,1.211,0.616,2.279,1.553,2.904c-0.572-0.018-1.11-0.175-1.581-0.437c-0.001,0.015-0.001,0.029-0.001,0.044
		c0,1.691,1.203,3.102,2.801,3.422c-0.293,0.08-0.602,0.123-0.92,0.123c-0.225,0-0.443-0.021-0.656-0.062
		c0.443,1.387,1.732,2.396,3.26,2.424c-1.194,0.936-2.699,1.494-4.334,1.494c-0.282,0-0.561-0.017-0.833-0.049
		c1.544,0.99,3.379,1.568,5.351,1.568c6.419,0,9.93-5.318,9.93-9.931c0-0.151-0.004-0.302-0.01-0.452
		C201.945,161.009,202.537,160.395,203.005,159.695z"/>
</g>
<g>
	<polygon fill="#FFFFFF" points="232.105,159.583 232.105,156.583 231.105,156.583 231.105,159.583 228.105,159.583 
		228.105,160.583 231.105,160.583 231.105,163.583 232.105,163.583 232.105,160.583 235.105,160.583 235.105,159.583 	"/>
	<path fill="#FFFFFF" d="M225.654,156.583c0,0-3.882,0-5.176,0c-2.32,0-4.504,1.86-4.504,3.897c0,2.08,1.582,3.811,3.942,3.811
		c0.164,0,0.323,0.023,0.479,0.012c-0.152,0.293-0.263,0.637-0.263,0.979c0,0.578,0.312,1.054,0.705,1.437
		c-0.298,0-0.585,0.012-0.897,0.012c-2.874,0-5.086,1.832-5.086,3.73c0,1.869,2.425,3.039,5.299,3.039
		c3.276,0,5.086-1.859,5.086-3.729c0-1.499-0.441-2.396-1.81-3.363c-0.468-0.331-1.362-1.137-1.362-1.609
		c0-0.555,0.158-0.828,0.993-1.48c0.856-0.669,1.462-1.631,1.462-2.725c0-1.302-0.58-2.011-1.668-3.011h1.641L225.654,156.583z
		 M223.847,169.45c0.04,0.174,0.063,0.352,0.063,0.533c0,1.512-0.974,2.691-3.767,2.691c-1.986,0-3.421-1.257-3.421-2.768
		c0-1.48,1.779-2.713,3.766-2.691c0.464,0.005,0.896,0.08,1.288,0.207C222.855,168.172,223.629,168.596,223.847,169.45z
		 M220.666,163.816c-1.334-0.04-2.601-1.491-2.831-3.243c-0.229-1.75,0.664-3.091,1.997-3.051s2.602,1.445,2.831,3.196
		S221.999,163.856,220.666,163.816z"/>
</g>
<g>
	<rect x="4.917" y="187.367" fill="#FFFFFF" width="20" height="1.384"/>
	<rect x="4.917" y="201.563" fill="#FFFFFF" width="20" height="1.384"/>
	<rect x="4.917" y="194.465" fill="#FFFFFF" width="20" height="1.383"/>
</g>
</svg>
