<svg xmlns="http://www.w3.org/2000/svg" width="90" height="30"><path fill="#284175" d="M16.213 23.789h-3.262v-7.896h-1.63v-2.721h1.63v-1.632c0-2.22.92-3.54 3.535-3.54h2.177v2.721h-1.36c-1.018 0-1.085.38-1.085 1.09l-.004 1.362h2.465l-.288 2.721h-2.177v7.895z"/><path fill="#fff" d="M16.213 22.895h-3.262v-7.896h-1.63v-2.721h1.63v-1.633c0-2.22.92-3.54 3.535-3.54h2.177v2.721h-1.36c-1.018 0-1.085.38-1.085 1.09l-.004 1.362h2.465l-.288 2.721h-2.177v7.896z"/><path fill="#1982B1" d="M53.506 10.636c-.626.277-1.299.465-2.005.55.721-.432 1.274-1.116 1.535-1.931-.674.4-1.421.69-2.216.847-.637-.679-1.544-1.102-2.548-1.102-1.928 0-3.49 1.562-3.49 3.49 0 .273.031.54.09.795-2.9-.146-5.472-1.535-7.194-3.646-.3.515-.472 1.115-.472 1.754 0 1.211.616 2.279 1.553 2.905-.572-.018-1.11-.175-1.581-.437v.044c0 1.691 1.203 3.102 2.8 3.422-.293.08-.601.123-.919.123-.225 0-.443-.022-.657-.062.444 1.386 1.733 2.396 3.26 2.423-1.194.936-2.699 1.494-4.334 1.494-.282 0-.56-.016-.833-.049 1.544.99 3.379 1.568 5.35 1.568 6.419 0 9.93-5.318 9.93-9.93l-.01-.452c.681-.491 1.273-1.106 1.741-1.806z"/><path fill="#fff" d="M53.506 9.725c-.626.277-1.299.465-2.005.55.721-.432 1.274-1.116 1.535-1.931-.674.4-1.421.69-2.216.847-.637-.678-1.543-1.102-2.547-1.102-1.928 0-3.49 1.562-3.49 3.49 0 .273.031.54.09.795-2.9-.146-5.472-1.535-7.194-3.646-.3.515-.472 1.115-.472 1.754 0 1.211.616 2.279 1.553 2.905-.572-.018-1.11-.175-1.581-.437v.044c0 1.691 1.203 3.102 2.8 3.422-.293.08-.601.123-.919.123-.225 0-.443-.022-.657-.062.444 1.386 1.733 2.396 3.26 2.423-1.194.936-2.699 1.494-4.334 1.494-.282 0-.56-.016-.833-.049 1.544.99 3.379 1.568 5.35 1.568 6.419 0 9.93-5.318 9.93-9.93l-.01-.452c.68-.492 1.272-1.107 1.74-1.806z"/><g fill="#781C15"><polygon points="82.907,10.399 82.907,7.399 81.907,7.399 81.907,10.399 78.907,10.399 78.907,11.399 81.907,11.399 81.907,14.399 82.907,14.399 82.907,11.399 85.907,11.399 85.907,10.399"/><path d="M76.456 7.399h-5.175c-2.321 0-4.504 1.861-4.504 3.897 0 2.081 1.582 3.812 3.942 3.812l.48.012c-.153.293-.263.636-.263.979 0 .578.311 1.053.705 1.436l-.897.012c-2.874 0-5.086 1.832-5.086 3.73 0 1.869 2.425 3.04 5.299 3.04 3.276 0 5.086-1.859 5.086-3.729 0-1.499-.442-2.396-1.81-3.363-.468-.331-1.362-1.136-1.362-1.609 0-.555.158-.828.993-1.48.856-.669 1.462-1.63 1.462-2.724 0-1.302-.58-2.011-1.668-3.011h1.641l1.157-1.002zm-1.808 12.867c.041.173.063.352.063.533 0 1.511-.974 2.691-3.767 2.691-1.986 0-3.421-1.257-3.421-2.768 0-1.48 1.779-2.713 3.766-2.691.463.005.896.08 1.288.207 1.08.75 1.853 1.174 2.071 2.028zm-3.181-5.634c-1.333-.04-2.6-1.491-2.831-3.243-.23-1.751.664-3.091 1.998-3.051 1.333.04 2.601 1.445 2.831 3.196s-.664 3.138-1.998 3.098z"/></g><g fill="#fff"><polygon points="82.907,9.542 82.907,6.542 81.907,6.542 81.907,9.542 78.907,9.542 78.907,10.542 81.907,10.542 81.907,13.542 82.907,13.542 82.907,10.542 85.907,10.542 85.907,9.542"/><path d="M76.456 6.542h-5.175c-2.321 0-4.504 1.861-4.504 3.897 0 2.081 1.582 3.812 3.942 3.812l.48.012c-.153.293-.263.636-.263.979 0 .578.311 1.053.705 1.436l-.897.012c-2.874 0-5.086 1.832-5.086 3.73 0 1.869 2.425 3.04 5.299 3.04 3.276 0 5.086-1.859 5.086-3.729 0-1.499-.442-2.396-1.81-3.363-.468-.331-1.362-1.136-1.362-1.609 0-.555.158-.828.993-1.48.856-.669 1.462-1.63 1.462-2.724 0-1.302-.58-2.011-1.668-3.011h1.641l1.157-1.002zm-1.808 12.866c.041.173.063.352.063.533 0 1.511-.974 2.691-3.767 2.691-1.986 0-3.421-1.257-3.421-2.768 0-1.48 1.779-2.713 3.766-2.691.463.005.896.08 1.288.207 1.08.75 1.853 1.174 2.071 2.028zm-3.181-5.634c-1.333-.04-2.6-1.491-2.831-3.243-.23-1.751.664-3.091 1.998-3.051 1.333.04 2.601 1.445 2.831 3.196s-.664 3.138-1.998 3.098z"/></g></svg>